<svg width="76" height="77" viewBox="0 0 76 77" fill="none" xmlns="http://www.w3.org/2000/svg">
<circle cx="37.8104" cy="38.5843" r="37.7884" fill="url(#paint0_linear)"/>
<circle cx="37.8104" cy="38.5843" r="33.3214" stroke="white"/>
<path d="M20.033 30.279C20.033 29.1323 20.4796 28.2523 21.373 27.639C22.2663 27.0256 23.3596 26.719 24.653 26.719C26.2663 26.719 27.6396 27.0456 28.773 27.699V28.899C27.653 28.1923 26.3063 27.839 24.733 27.839C23.7063 27.839 22.8663 28.039 22.213 28.439C21.5596 28.8256 21.233 29.4256 21.233 30.239C21.233 30.7723 21.3863 31.2323 21.693 31.619C22.013 31.9923 22.4196 32.299 22.913 32.539C23.4196 32.7656 23.973 32.979 24.573 33.179C25.1863 33.3656 25.793 33.5723 26.393 33.799C27.0063 34.0123 27.5596 34.2656 28.053 34.559C28.5596 34.8523 28.9663 35.2523 29.273 35.759C29.593 36.2656 29.753 36.859 29.753 37.539C29.753 38.379 29.513 39.079 29.033 39.639C28.553 40.199 27.953 40.599 27.233 40.839C26.513 41.0656 25.6996 41.1723 24.793 41.159C23.033 41.159 21.4396 40.7656 20.013 39.979V38.799C21.4263 39.6256 22.993 40.039 24.713 40.039C25.8463 40.039 26.7663 39.8456 27.473 39.459C28.193 39.0723 28.553 38.459 28.553 37.619C28.553 37.059 28.393 36.579 28.073 36.179C27.7663 35.7656 27.3596 35.439 26.853 35.199C26.3596 34.959 25.8063 34.739 25.193 34.539C24.593 34.339 23.9863 34.1323 23.373 33.919C22.773 33.6923 22.2196 33.439 21.713 33.159C21.2196 32.879 20.813 32.499 20.493 32.019C20.1863 31.5256 20.033 30.9456 20.033 30.279ZM39.5959 39.199C39.5959 39.759 39.8826 40.039 40.4559 40.039C40.6693 40.039 40.9159 39.9923 41.1959 39.899V40.819C40.8359 40.9523 40.4893 41.019 40.1559 41.019C39.1426 41.019 38.5893 40.5256 38.4959 39.539C37.4959 40.619 36.1826 41.159 34.5559 41.159C33.6359 41.159 32.8493 40.919 32.1959 40.439C31.5426 39.9456 31.2159 39.239 31.2159 38.319C31.2159 37.2256 31.6293 36.4323 32.4559 35.939C33.2826 35.4323 34.2826 35.179 35.4559 35.179C36.4826 35.179 37.4893 35.319 38.4759 35.599V34.959C38.4759 34.1056 38.2093 33.4256 37.6759 32.919C37.1426 32.4123 36.3893 32.159 35.4159 32.159C34.1893 32.159 33.0426 32.3856 31.9759 32.839V31.719C33.1093 31.319 34.2959 31.119 35.5359 31.119C36.8159 31.119 37.8093 31.4656 38.5159 32.159C39.2359 32.8523 39.5959 33.8323 39.5959 35.099V39.199ZM32.3759 38.259C32.3759 38.8856 32.6093 39.3656 33.0759 39.699C33.5426 40.019 34.1093 40.179 34.7759 40.179C35.5093 40.179 36.2026 40.019 36.8559 39.699C37.5093 39.3656 38.0493 38.899 38.4759 38.299V36.539C37.4626 36.2723 36.5093 36.139 35.6159 36.139C34.7093 36.139 33.9426 36.3123 33.3159 36.659C32.6893 36.9923 32.3759 37.5256 32.3759 38.259ZM42.9558 26.339H44.0958V40.939H42.9558V26.339ZM46.6108 36.139C46.6108 34.579 47.0841 33.3523 48.0308 32.459C48.9908 31.5656 50.0974 31.119 51.3508 31.119C52.0574 31.119 52.6908 31.2323 53.2508 31.459C53.8108 31.6723 54.2574 31.9656 54.5908 32.339C54.9374 32.7123 55.2241 33.139 55.4508 33.619C55.6774 34.099 55.7974 34.599 55.8108 35.119C55.8374 35.6256 55.8108 36.139 55.7308 36.659H47.7508C47.8174 37.8056 48.2574 38.6723 49.0708 39.259C49.8841 39.8323 50.8774 40.119 52.0508 40.119C53.2508 40.119 54.2974 39.859 55.1908 39.339V40.459C54.3241 40.9256 53.2241 41.159 51.8908 41.159C50.3841 41.159 49.1241 40.7323 48.1108 39.879C47.1108 39.0256 46.6108 37.779 46.6108 36.139ZM54.7308 35.659C54.8241 34.819 54.5974 34.0256 54.0508 33.279C53.5174 32.5323 52.6441 32.159 51.4308 32.159C50.4441 32.159 49.5974 32.4723 48.8908 33.099C48.1841 33.7123 47.8041 34.5656 47.7508 35.659H54.7308ZM21.0667 54.269H20.5167V52.429H21.1467C21.4533 51.8423 21.6767 51.2156 21.8167 50.549C21.9567 49.8756 22.0233 49.0723 22.0167 48.139H25.4467V52.429H26.1467V54.269H25.5867V52.939H21.0667V54.269ZM22.5567 48.649C22.5367 50.089 22.27 51.349 21.7567 52.429H24.8867V48.649H22.5567ZM27.5795 52.379C27.0861 51.9256 26.8395 51.3123 26.8395 50.539C26.8395 49.7656 27.0861 49.1556 27.5795 48.709C28.0795 48.2556 28.6728 48.029 29.3595 48.029C30.0528 48.029 30.6461 48.2556 31.1395 48.709C31.6395 49.1556 31.8895 49.7656 31.8895 50.539C31.8895 51.3123 31.6395 51.9256 31.1395 52.379C30.6461 52.8256 30.0528 53.049 29.3595 53.049C28.6728 53.049 28.0795 52.8256 27.5795 52.379ZM30.7595 51.979C31.1328 51.6256 31.3195 51.1456 31.3195 50.539C31.3195 49.9323 31.1328 49.4523 30.7595 49.099C30.3861 48.7456 29.9228 48.569 29.3695 48.569C28.8161 48.569 28.3495 48.7456 27.9695 49.099C27.5961 49.4523 27.4095 49.9323 27.4095 50.539C27.4095 51.1456 27.5961 51.6256 27.9695 51.979C28.3495 52.3323 28.8161 52.509 29.3695 52.509C29.9228 52.509 30.3861 52.3323 30.7595 51.979ZM39.9551 47.849C39.9551 48.209 39.8518 48.5323 39.6451 48.819C39.4451 49.099 39.1684 49.2856 38.8151 49.379C39.2151 49.479 39.5518 49.6723 39.8251 49.959C40.0984 50.2456 40.2351 50.6323 40.2351 51.119C40.2351 51.7323 40.0084 52.209 39.5551 52.549C39.1084 52.8823 38.5351 53.049 37.8351 53.049C36.8951 53.049 36.1051 52.9023 35.4651 52.609V52.019C36.1118 52.339 36.8851 52.4956 37.7851 52.489C38.3584 52.489 38.8151 52.3723 39.1551 52.139C39.4951 51.9056 39.6651 51.5556 39.6651 51.089C39.6651 50.609 39.4951 50.259 39.1551 50.039C38.8218 49.819 38.3784 49.709 37.8251 49.709H36.8151V49.139L37.7651 49.149C38.2918 49.149 38.6918 49.0323 38.9651 48.799C39.2451 48.559 39.3851 48.259 39.3851 47.899C39.3851 47.5056 39.2284 47.189 38.9151 46.949C38.6084 46.7023 38.1818 46.579 37.6351 46.579C36.9151 46.579 36.2318 46.7423 35.5851 47.069V46.489C36.2118 46.1823 36.9184 46.029 37.7051 46.029C38.3851 46.029 38.9284 46.2023 39.3351 46.549C39.7484 46.889 39.9551 47.3223 39.9551 47.849ZM42.9545 46.139H43.3845V52.369H44.7145V52.939H41.3045V52.369H42.7945V46.779L41.3045 47.339V46.769L42.9545 46.139ZM46.2542 52.349C46.3342 52.4156 46.3742 52.509 46.3742 52.629C46.3742 52.749 46.3342 52.8456 46.2542 52.919C46.1808 52.9856 46.0875 53.019 45.9742 53.019C45.8608 53.019 45.7642 52.9856 45.6842 52.919C45.6108 52.8456 45.5742 52.749 45.5742 52.629C45.5742 52.509 45.6108 52.4156 45.6842 52.349C45.7642 52.2756 45.8608 52.239 45.9742 52.239C46.0875 52.239 46.1808 52.2756 46.2542 52.349ZM49.1947 46.139H49.6247V52.369H50.9547V52.939H47.5447V52.369H49.0347V46.779L47.5447 47.339V46.769L49.1947 46.139ZM53.3744 46.139H53.8044V52.369H55.1344V52.939H51.7244V52.369H53.2144V46.779L51.7244 47.339V46.769L53.3744 46.139Z" fill="white"/>
<defs>
<linearGradient id="paint0_linear" x1="37.8104" y1="0.795898" x2="37.8104" y2="76.3727" gradientUnits="userSpaceOnUse">
<stop stop-color="#FD8F35"/>
<stop offset="1" stop-color="#F2602D"/>
</linearGradient>
</defs>
</svg>
