<svg width="111" height="56" viewBox="0 0 111 56" fill="none" xmlns="http://www.w3.org/2000/svg">
<path fill-rule="evenodd" clip-rule="evenodd" d="M0.826416 42.6042L12.6948 21.7891L0.826514 0.974121H110.251V42.6042H0.826416Z" fill="url(#paint0_linear)"/>
<path d="M28.2106 21.9038C28.2106 20.7838 28.4706 19.8305 28.9906 19.0438C29.524 18.2438 30.1706 17.6771 30.9306 17.3438C31.6906 16.9971 32.5106 16.8238 33.3906 16.8238C34.564 16.8238 35.5306 17.0838 36.2906 17.6038V18.7038C35.544 18.1438 34.624 17.8638 33.5306 17.8638C32.384 17.8638 31.3973 18.2038 30.5706 18.8838C29.7573 19.5638 29.3506 20.5638 29.3506 21.8838C29.3506 23.1505 29.744 24.1238 30.5306 24.8038C31.3306 25.4838 32.2906 25.8238 33.4106 25.8238C34.5173 25.8238 35.5106 25.5638 36.3906 25.0438V26.1838C35.484 26.6371 34.4373 26.8638 33.2506 26.8638C31.8906 26.8638 30.7106 26.4371 29.7106 25.5838C28.7106 24.7305 28.2106 23.5038 28.2106 21.9038ZM39.9716 26.6438H38.8316V17.0438H39.9716V21.2038H42.1916L45.5516 17.0438H46.8716L43.0916 21.7638L47.3716 26.6438H46.0316L42.1316 22.2638H39.9716V26.6438ZM50.0459 26.6438H49.0659V17.0438H50.2059V24.8238L56.7059 17.0438H57.6859V26.6438H56.5659V18.8638L50.0459 26.6438ZM60.8642 29.3038H59.7642V25.6238H61.0242C61.6375 24.4505 62.0842 23.1971 62.3642 21.8638C62.6442 20.5171 62.7775 18.9105 62.7642 17.0438H69.6242V25.6238H71.0242V29.3038H69.9042V26.6438H60.8642V29.3038ZM63.8442 18.0638C63.8042 20.9438 63.2709 23.4638 62.2442 25.6238H68.5042V18.0638H63.8442ZM74.3856 26.6438H73.2456V17.0438H74.3856V21.2038H76.6056L79.9656 17.0438H81.2856L77.5056 21.7638L81.7856 26.6438H80.4456L76.5456 22.2638H74.3856V26.6438ZM91.02 24.9038C91.02 25.4638 91.3067 25.7438 91.88 25.7438C92.0933 25.7438 92.34 25.6971 92.62 25.6038V26.5238C92.26 26.6571 91.9133 26.7238 91.58 26.7238C90.5667 26.7238 90.0133 26.2305 89.92 25.2438C88.92 26.3238 87.6067 26.8638 85.98 26.8638C85.06 26.8638 84.2733 26.6238 83.62 26.1438C82.9667 25.6505 82.64 24.9438 82.64 24.0238C82.64 22.9305 83.0533 22.1371 83.88 21.6438C84.7067 21.1371 85.7067 20.8838 86.88 20.8838C87.9067 20.8838 88.9133 21.0238 89.9 21.3038V20.6638C89.9 19.8105 89.6333 19.1305 89.1 18.6238C88.5667 18.1171 87.8133 17.8638 86.84 17.8638C85.6133 17.8638 84.4667 18.0905 83.4 18.5438V17.4238C84.5333 17.0238 85.72 16.8238 86.96 16.8238C88.24 16.8238 89.2333 17.1705 89.94 17.8638C90.66 18.5571 91.02 19.5371 91.02 20.8038V24.9038ZM83.8 23.9638C83.8 24.5905 84.0333 25.0705 84.5 25.4038C84.9667 25.7238 85.5333 25.8838 86.2 25.8838C86.9333 25.8838 87.6267 25.7238 88.28 25.4038C88.9333 25.0705 89.4733 24.6038 89.9 24.0038V22.2438C88.8867 21.9771 87.9333 21.8438 87.04 21.8438C86.1333 21.8438 85.3667 22.0171 84.74 22.3638C84.1133 22.6971 83.8 23.2305 83.8 23.9638Z" fill="white"/>
<path d="M110.186 42.5901L90.8872 55.2574L90.8872 42.5901L110.186 42.5901Z" fill="#AA3810"/>
<defs>
<linearGradient id="paint0_linear" x1="55.5388" y1="0.974121" x2="55.5388" y2="42.6042" gradientUnits="userSpaceOnUse">
<stop stop-color="#FD8F35"/>
<stop offset="1" stop-color="#F2602D"/>
</linearGradient>
</defs>
</svg>
