<svg width="111" height="56" fill="none" xmlns="http://www.w3.org/2000/svg"><path fill-rule="evenodd" clip-rule="evenodd" d="M.826 42.604L12.695 21.79.827.974H110.25v41.63H.826z" fill="url(#paint0_linear)"/><path d="M28.21 21.904c0-1.12.26-2.073.78-2.86.534-.8 1.18-1.367 1.94-1.7.76-.347 1.58-.52 2.46-.52 1.174 0 2.14.26 2.9.78v1.1c-.746-.56-1.666-.84-2.76-.84-1.146 0-2.133.34-2.96 1.02-.813.68-1.22 1.68-1.22 3 0 1.267.394 2.24 1.18 2.92.8.68 1.76 1.02 2.88 1.02 1.107 0 2.1-.26 2.98-.78v1.14c-.906.453-1.953.68-3.14.68-1.36 0-2.54-.427-3.54-1.28-1-.854-1.5-2.08-1.5-3.68zm11.762 4.74h-1.14v-9.6h1.14v4.16h2.22l3.36-4.16h1.32l-3.78 4.72 4.28 4.88h-1.34l-3.9-4.38h-2.16v4.38zm10.074 0h-.98v-9.6h1.14v7.78l6.5-7.78h.98v9.6h-1.12v-7.78l-6.52 7.78zm10.818 2.66h-1.1v-3.68h1.26a14.513 14.513 0 001.34-3.76c.28-1.347.414-2.954.4-4.82h6.86v8.58h1.4v3.68h-1.12v-2.66h-9.04v2.66zm2.98-11.24c-.04 2.88-.573 5.4-1.6 7.56h6.26v-7.56h-4.66zm10.542 8.58h-1.14v-9.6h1.14v4.16h2.22l3.36-4.16h1.32l-3.78 4.72 4.28 4.88h-1.34l-3.9-4.38h-2.16v4.38zm16.634-1.74c0 .56.287.84.86.84.213 0 .46-.047.74-.14v.92c-.36.133-.707.2-1.04.2-1.013 0-1.567-.494-1.66-1.48-1 1.08-2.313 1.62-3.94 1.62-.92 0-1.707-.24-2.36-.72-.653-.493-.98-1.2-.98-2.12 0-1.094.413-1.887 1.24-2.38.827-.507 1.827-.76 3-.76 1.027 0 2.033.14 3.02.42v-.64c0-.854-.267-1.534-.8-2.04-.533-.507-1.287-.76-2.26-.76a8.703 8.703 0 00-3.44.68v-1.12c1.133-.4 2.32-.6 3.56-.6 1.28 0 2.273.346 2.98 1.04.72.693 1.08 1.673 1.08 2.94v4.1zm-7.22-.94c0 .627.233 1.107.7 1.44.467.32 1.033.48 1.7.48.733 0 1.427-.16 2.08-.48a4.432 4.432 0 001.62-1.4v-1.76c-1.013-.267-1.967-.4-2.86-.4-.907 0-1.673.173-2.3.52-.627.333-.94.866-.94 1.6z" fill="#fff"/><path d="M110.186 42.59L90.887 55.257V42.59h19.299z" fill="#AA3810"/><defs><linearGradient id="paint0_linear" x1="55.539" y1=".974" x2="55.539" y2="42.604" gradientUnits="userSpaceOnUse"><stop stop-color="#FD8F35"/><stop offset="1" stop-color="#F2602D"/></linearGradient></defs></svg>