<svg width="76" height="77" fill="none" xmlns="http://www.w3.org/2000/svg"><circle cx="37.81" cy="38.584" r="37.788" fill="url(#paint0_linear)"/><circle cx="37.81" cy="38.584" r="33.321" stroke="#fff"/><path d="M20.033 30.279c0-1.147.447-2.027 1.34-2.64s1.987-.92 3.28-.92c1.613 0 2.987.327 4.12.98v1.2c-1.12-.707-2.467-1.06-4.04-1.06-1.027 0-1.867.2-2.52.6-.653.387-.98.987-.98 1.8 0 .533.153.993.46 1.38.32.373.727.68 1.22.92.507.227 1.06.44 1.66.64.613.187 1.22.393 1.82.62a9.066 9.066 0 011.66.76c.507.293.913.693 1.22 1.2.32.507.48 1.1.48 1.78 0 .84-.24 1.54-.72 2.1s-1.08.96-1.8 1.2c-.72.227-1.533.333-2.44.32-1.76 0-3.353-.393-4.78-1.18v-1.18c1.413.827 2.98 1.24 4.7 1.24 1.133 0 2.053-.193 2.76-.58.72-.387 1.08-1 1.08-1.84 0-.56-.16-1.04-.48-1.44a3.182 3.182 0 00-1.22-.98 13.05 13.05 0 00-1.66-.66c-.6-.2-1.207-.407-1.82-.62-.6-.227-1.153-.48-1.66-.76-.493-.28-.9-.66-1.22-1.14-.307-.493-.46-1.073-.46-1.74zm19.563 8.92c0 .56.287.84.86.84.213 0 .46-.047.74-.14v.92c-.36.133-.707.2-1.04.2-1.013 0-1.567-.493-1.66-1.48-1 1.08-2.313 1.62-3.94 1.62-.92 0-1.707-.24-2.36-.72-.653-.493-.98-1.2-.98-2.12 0-1.093.413-1.887 1.24-2.38.827-.507 1.827-.76 3-.76 1.027 0 2.033.14 3.02.42v-.64c0-.853-.267-1.533-.8-2.04-.533-.507-1.287-.76-2.26-.76a8.702 8.702 0 00-3.44.68v-1.12c1.133-.4 2.32-.6 3.56-.6 1.28 0 2.273.347 2.98 1.04.72.693 1.08 1.673 1.08 2.94v4.1zm-7.22-.94c0 .627.233 1.107.7 1.44.467.32 1.033.48 1.7.48.733 0 1.427-.16 2.08-.48a4.432 4.432 0 001.62-1.4v-1.76c-1.013-.267-1.967-.4-2.86-.4-.907 0-1.673.173-2.3.52-.627.333-.94.867-.94 1.6zm10.58-11.92h1.14v14.6h-1.14v-14.6zm3.655 9.8c0-1.56.473-2.787 1.42-3.68.96-.893 2.066-1.34 3.32-1.34.706 0 1.34.113 1.9.34.56.213 1.006.507 1.34.88.346.373.633.8.86 1.28.226.48.346.98.36 1.5.026.507 0 1.02-.08 1.54h-7.98c.066 1.147.506 2.013 1.32 2.6.813.573 1.806.86 2.98.86 1.2 0 2.246-.26 3.14-.78v1.12c-.867.467-1.967.7-3.3.7-1.507 0-2.767-.427-3.78-1.28-1-.853-1.5-2.1-1.5-3.74zm8.12-.48c.093-.84-.134-1.633-.68-2.38-.534-.747-1.407-1.12-2.62-1.12-.987 0-1.834.313-2.54.94-.707.613-1.087 1.467-1.14 2.56h6.98zm-33.664 18.61h-.55v-1.84h.63a7.26 7.26 0 00.67-1.88c.14-.673.206-1.477.2-2.41h3.43v4.29h.7v1.84h-.56v-1.33h-4.52v1.33zm1.49-5.62c-.02 1.44-.287 2.7-.8 3.78h3.13v-3.78h-2.33zm5.023 3.73c-.494-.453-.74-1.067-.74-1.84 0-.773.246-1.383.74-1.83a2.56 2.56 0 011.78-.68c.693 0 1.286.227 1.78.68.5.447.75 1.057.75 1.83 0 .773-.25 1.387-.75 1.84-.494.447-1.087.67-1.78.67a2.58 2.58 0 01-1.78-.67zm3.18-.4c.373-.353.56-.833.56-1.44s-.187-1.087-.56-1.44c-.374-.353-.837-.53-1.39-.53-.554 0-1.02.177-1.4.53-.374.353-.56.833-.56 1.44s.186 1.087.56 1.44c.38.353.846.53 1.4.53.553 0 1.016-.177 1.39-.53zm9.195-4.13c0 .36-.103.683-.31.97-.2.28-.477.467-.83.56.4.1.737.293 1.01.58s.41.673.41 1.16c0 .613-.227 1.09-.68 1.43-.447.333-1.02.5-1.72.5-.94 0-1.73-.147-2.37-.44v-.59c.647.32 1.42.477 2.32.47.573 0 1.03-.117 1.37-.35.34-.233.51-.583.51-1.05 0-.48-.17-.83-.51-1.05-.333-.22-.777-.33-1.33-.33h-1.01v-.57l.95.01c.527 0 .927-.117 1.2-.35.28-.24.42-.54.42-.9 0-.393-.157-.71-.47-.95-.307-.247-.733-.37-1.28-.37-.72 0-1.403.163-2.05.49v-.58c.627-.307 1.333-.46 2.12-.46.68 0 1.223.173 1.63.52.413.34.62.773.62 1.3zm3-1.71h.43v6.23h1.33v.57h-3.41v-.57h1.49v-5.59l-1.49.56v-.57l1.65-.63zm3.3 6.21c.08.067.12.16.12.28a.375.375 0 01-.4.39.438.438 0 01-.29-.1.392.392 0 01-.11-.29c0-.12.036-.213.11-.28a.414.414 0 01.29-.11.38.38 0 01.28.11zm2.94-6.21h.43v6.23h1.33v.57h-3.41v-.57h1.49v-5.59l-1.49.56v-.57l1.65-.63zm4.18 0h.43v6.23h1.33v.57h-3.41v-.57h1.49v-5.59l-1.49.56v-.57l1.65-.63z" fill="#fff"/><defs><linearGradient id="paint0_linear" x1="37.81" y1=".796" x2="37.81" y2="76.373" gradientUnits="userSpaceOnUse"><stop stop-color="#FD8F35"/><stop offset="1" stop-color="#F2602D"/></linearGradient></defs></svg>