<svg width="59" height="64" fill="none" xmlns="http://www.w3.org/2000/svg"><path d="M33.569 19.819v-.001c-.258-.411-.823-.568-1.238-.309-.257.155-.41.411-.461.666h0v.005c-.194 1.88-1.3 2.936-2.212 3.368h0-.002c-.733.38-1.467.192-2.028-.238-.563-.431-.942-1.1-.966-1.666-.023-1.044.607-1.669 1.438-2.493l.063-.063c.86-.853 1.9-1.918 2.586-3.852h0c.81-2.33.27-4.174-.75-5.53-1.017-1.355-2.511-2.224-3.613-2.616-.418-.157-.83.055-1.08.407h0l-.003.004a.938.938 0 00.154 1.132l.002.001c.033.033.356.354.514.968.161.625.152 1.562-.525 2.818h0c-.192.36-.382.585-.618.756-.237.172-.524.292-.913.438h0c-1.273.49-2.4 1.224-3.33 2.252-.837.862-1.241 1.944-1.437 3.063-.185 1.057-.184 2.15-.183 3.13v.171c0 .463 0 1.033-.03 1.518a5.198 5.198 0 01-.072.636c-.017.087-.036.16-.058.22a.384.384 0 01-.061.114c-.134.04-.359.029-.59-.052a1.136 1.136 0 01-.605-.465c-.234-.422-.213-1.038-.104-1.627a8.978 8.978 0 01.399-1.397.888.888 0 00-.463-1.183.869.869 0 00-.982.155c-4.834 4.493-4.884 9.572-4.884 9.774 0 5.822 4.551 11.297 12.417 11.297 3.27 0 6.165-.732 8.373-2.298 2.21-1.566 3.725-3.964 4.238-7.287.416-2.618-.294-5.512-1.122-7.779-.83-2.268-1.78-3.914-1.854-4.038zm-13.89 11.975c.4 1.429 1.148 2.242 2.016 2.456.889.219 1.88-.197 2.715-1.179h.001c1.006-1.246 1.544-2.771 1.568-4.394.782.767 1.665 1.768 2.349 2.909.71 1.182 1.204 2.51 1.155 3.886h0c-.048 1.517-.697 2.5-1.71 3.105-1.017.608-2.406.839-3.936.839-3.234-.049-5.11-2.265-5.16-4.72a6.237 6.237 0 011.002-2.902zm-2.855 2.851c0 1.062.26 2.123.782 3.063-2.564-1.667-4.188-4.608-4.236-7.735.19-2.236.941-4.33 2.252-6.149.053.44.155.847.38 1.254h.001a2.986 2.986 0 001.863 1.412c.736.186 1.508.076 2.059-.375h0c.451-.377.674-.938.784-1.607.11-.667.11-1.45.11-2.275v-.216c0-.863-.002-1.764.122-2.591.133-.896.41-1.7.983-2.273h0l.002-.001a7.291 7.291 0 012.707-1.837c1.032-.345 1.919-1.034 2.413-2.02.57-.998.864-2.088.837-3.227 1.207 1.004 1.581 2.366 1.364 3.743-.224 1.411-1.069 2.837-2.279 3.902h0c-.976.879-2.16 2.304-2.11 3.983h0c.05 1.211.765 2.393 1.792 3.119 1.028.726 2.373.999 3.683.382 1.147-.478 2.061-1.374 2.608-2.507.968 2.152 2.23 5.68 1.801 8.686-.52 3.171-2.01 5.137-3.927 6.354a5.424 5.424 0 00.472-2.158c.123-2.697-1.323-5.119-2.83-6.887-1.504-1.766-3.076-2.888-3.229-2.99-.724-.517-1.647.209-1.39 1.03h0a5.593 5.593 0 01-.217 4.108 4.648 4.648 0 01-.813 1.258c-.137.145-.27.255-.386.325-.118.07-.214.096-.282.087-.138-.022-.27-.13-.393-.312a2.854 2.854 0 01-.321-.707 7.31 7.31 0 01-.314-1.806c-.001-.772-.928-1.185-1.496-.669a8.327 8.327 0 00-2.792 5.633h0v.003z" fill="#F3652E" stroke="#F3652E" stroke-width=".1"/><path d="M6.417 39.108h0a24.03 24.03 0 002.715 2.718v15.8c0 3.193 2.603 5.747 5.745 5.796h18.454c3.193 0 5.746-2.604 5.795-5.795v0-2.823h5.89c5.627 0 10.128-4.55 10.177-10.177v0-4.042c1.807-.075 3.214-1.596 3.214-3.408a3.416 3.416 0 00-3.41-3.41h-5.404a3.416 3.416 0 00-3.41 3.41 3.397 3.397 0 003.263 3.408v4.042c0 2.454-1.974 4.43-4.48 4.478h-5.84v-7.28c9.743-8.297 10.956-22.923 2.715-32.676C33.595-.61 18.908-1.829 9.149 6.417-.61 14.663-1.829 29.35 6.417 39.108zm17.712 6.394h0c-11.804.048-21.373-9.52-21.373-21.373 0-11.804 9.57-21.373 21.373-21.373s21.373 9.57 21.373 21.373-9.57 21.373-21.373 21.373zm13.144 12.076v.05h.049c-.027 2.187-1.795 3.893-3.992 3.94H14.878c-2.21 0-3.943-1.777-3.991-3.99V43.213a23.032 23.032 0 0026.386 0v14.364zM44.967 53h-5.84v-2.091h5.89c3.435 0 6.232-2.798 6.281-6.282v0-4.04h2.09l-.047 4.04v0c0 4.597-3.727 8.324-8.374 8.373 0 0 0 0 0 0zm10.078-14.217h0-.001 0-.001 0-.001 0-.001 0-.001 0-.001 0-.001 0-.001 0-.001 0-.001 0-.001 0-.001 0-.001 0-.001 0-.001 0-.001 0-.001 0-.001 0-.001 0-.001 0-.001 0-.001 0-.001 0-.001 0-.001 0-.001 0-.001 0-.001 0-.001 0-.001 0-.001 0-.001 0-.001 0-.001 0-.001 0-.001 0-.001 0-.001 0-.001 0-.001 0-.001 0-.001 0-.001 0H55h0-.001 0-.001 0-5.405c-.897 0-1.607-.708-1.654-1.608-.047-.892.705-1.604 1.606-1.652h5.452c.897 0 1.607.708 1.654 1.608.047.892-.704 1.604-1.606 1.652z" fill="#F3652E" stroke="#F3652E" stroke-width=".1"/></svg>