<svg width="51" height="50" fill="none" xmlns="http://www.w3.org/2000/svg"><path d="M50 18.57H29.331a.999.999 0 00-.116 1.994c8.573 1.132 14.793 6.021 14.793 11.628 0 3.09-1.87 6.026-5.264 8.265-2.2 1.451-4.86 2.495-7.77 3.075 1.29-1.516 1.966-3.569 1.713-5.748-.901-7.79-7.184-12.349-7.45-12.54a1 1 0 00-1.58.791c-.041 1.678-1.19 3.43-2.406 5.285-1.614 2.462-3.444 5.252-2.95 8.518a7.35 7.35 0 001.688 3.686c-2.898-.581-5.547-1.624-7.739-3.071-3.39-2.24-5.258-5.173-5.258-8.26 0-5.608 6.22-10.497 14.793-11.628a1 1 0 00-.116-1.995H1a1 1 0 00-1 1v29.424a1 1 0 001 1h49a1 1 0 001-1V19.57a1 1 0 00-1-1zM22.923 32.417c.947-1.444 1.916-2.922 2.407-4.475 1.758 1.66 4.805 5.183 5.37 10.072a5.525 5.525 0 01-1.049 3.967c-.052-1.313-.756-2.374-1.389-3.327-.526-.794-1.023-1.543-1.08-2.323a1 1 0 00-1.577-.743c-.13.092-3.171 2.3-3.607 6.072-.043.364-.034.721.017 1.065a5.331 5.331 0 01-1.737-3.186c-.379-2.51 1.159-4.854 2.645-7.122zm4.708 10.021a1.857 1.857 0 01-2.088 1.569c-.995-.144-1.68-1.073-1.559-2.117.183-1.583 1.003-2.836 1.706-3.645.264.547.595 1.046.906 1.514.63.95 1.173 1.769 1.035 2.68zM49 47.994H2v-1.83h5.567a1 1 0 100-2H2V20.57h12.28c-1.647.725-3.142 1.609-4.425 2.629-3.136 2.494-4.863 5.688-4.863 8.993 0 3.782 2.186 7.308 6.156 9.93 3.841 2.536 8.93 3.935 14.33 3.94h.028c5.402-.002 10.494-1.399 14.339-3.935 3.974-2.622 6.163-6.15 6.163-9.935 0-3.305-1.727-6.5-4.863-8.993-1.283-1.02-2.779-1.904-4.425-2.629H49v27.424zM33.41 6.443c-.492-.543-.816-.901-.816-1.703 0-.801.324-1.16.815-1.702.4-.443.855-.944 1.12-1.71a1 1 0 10-1.89-.655c-.132.38-.388.664-.713 1.023-.593.656-1.332 1.472-1.332 3.044s.739 2.388 1.332 3.044c.49.543.815.9.815 1.702 0 .801-.324 1.16-.815 1.702-.433.479-.972 1.074-1.21 2.01a1 1 0 001.94.492c.115-.454.396-.766.753-1.16.594-.656 1.332-1.472 1.332-3.044 0-1.571-.739-2.388-1.332-3.043zm-7.169 0c-.49-.543-.815-.901-.815-1.703 0-.801.324-1.16.815-1.702.4-.442.855-.944 1.12-1.711a1 1 0 10-1.89-.653c-.132.38-.388.664-.713 1.022-.593.656-1.332 1.472-1.332 3.044s.739 2.388 1.332 3.044c.49.542.815.9.815 1.702 0 .801-.324 1.16-.815 1.702-.433.479-.972 1.074-1.21 2.01a1 1 0 001.94.492c.114-.454.396-.766.753-1.16.594-.656 1.332-1.472 1.332-3.044 0-1.571-.739-2.388-1.332-3.043zm-7.168-.001c-.49-.542-.815-.9-.815-1.702 0-.801.324-1.16.815-1.702.4-.442.855-.944 1.12-1.711a1 1 0 10-1.89-.653c-.132.38-.388.664-.713 1.022-.593.656-1.332 1.472-1.332 3.044s.739 2.388 1.333 3.044c.49.543.815.901.815 1.702 0 .801-.324 1.16-.815 1.702-.433.479-.972 1.074-1.21 2.01a1 1 0 001.94.492c.114-.454.396-.766.753-1.16.593-.656 1.332-1.472 1.332-3.044s-.739-2.388-1.333-3.044z" fill="#F3652E"/><path d="M10.728 44.164c-1.287 0-1.289 2 0 2 1.287 0 1.29-2 0-2z" fill="#F3652E"/></svg>