<svg width="50" height="50" fill="none" xmlns="http://www.w3.org/2000/svg"><path d="M44.665 9.564h1.545a.976.976 0 000-1.952h-3.709a.976.976 0 00-.975.976v3.709a.976.976 0 001.951 0v-1.074A22.973 22.973 0 0148.048 25c0 12.709-10.34 23.048-23.048 23.048-12.709 0-23.048-10.34-23.048-23.048C1.952 12.291 12.292 1.952 25 1.952c.94 0 1.886.057 2.812.17a.977.977 0 00.235-1.938A25.354 25.354 0 0025 0C18.322 0 12.044 2.6 7.322 7.322 2.6 12.044 0 18.322 0 25c0 6.678 2.6 12.956 7.322 17.678C12.044 47.4 18.322 50 25 50c6.678 0 12.956-2.6 17.678-7.322C47.4 37.956 50 31.678 50 25a24.918 24.918 0 00-5.335-15.436z" fill="#F3652E"/><path d="M10.586 14.738a.976.976 0 00-1.347.302 18.711 18.711 0 00-2.777 11.916 18.683 18.683 0 005.357 11.225A18.582 18.582 0 0025 43.63c4.773 0 9.547-1.816 13.18-5.45 7.269-7.268 7.269-19.094 0-26.361a18.684 18.684 0 00-11.206-5.356A18.712 18.712 0 0015.072 9.22a.976.976 0 001.04 1.652C22.744 6.69 31.25 7.649 36.8 13.2c6.507 6.507 6.507 17.094 0 23.6-6.506 6.507-17.094 6.507-23.6 0-5.474-5.473-6.446-14.186-2.311-20.715a.976.976 0 00-.303-1.347z" fill="#F3652E"/><path d="M37.687 25.992h1.204a.976.976 0 000-1.952h-1.204a.976.976 0 000 1.952zm-27.554-1.008c0 .539.438.976.976.976h1.204a.976.976 0 000-1.952h-1.204a.976.976 0 00-.976.976zm15.859-12.671v-1.204a.976.976 0 00-1.952 0v1.204a.976.976 0 001.952 0zm-1.984 25.374v1.204a.976.976 0 001.952 0v-1.204a.976.976 0 00-1.952 0zm-3.9-18.959a.976.976 0 00-1.38 1.38l3.307 3.308A3.342 3.342 0 0021.639 25 3.366 3.366 0 0025 28.362 3.366 3.366 0 0028.362 25c0-.572-.144-1.112-.398-1.584l6.674-6.674a.976.976 0 00-1.38-1.38l-6.674 6.674A3.34 3.34 0 0025 21.638c-.573 0-1.112.144-1.584.398l-3.308-3.308zM26.41 25a1.41 1.41 0 01-2.82 0 1.41 1.41 0 012.82 0zM13.2 13.2a.98.98 0 00.286-.69.982.982 0 00-.977-.977.983.983 0 00-.69.286.984.984 0 00-.286.69c0 .258.105.509.286.69a.984.984 0 00.69.286.983.983 0 00.69-.286zm18.56-9.284a.98.98 0 00.977-.976.983.983 0 00-.286-.69.984.984 0 00-.69-.286.983.983 0 00-.69.286.983.983 0 00-.287.69.98.98 0 00.976.976z" fill="#F3652E"/></svg>