<svg width="50" height="60" fill="none" xmlns="http://www.w3.org/2000/svg"><path d="M48.93 18.994h-8.175v-3.648c0-.503-.378-1.006-1.007-1.006h-3.647V8.553h5.283a4.241 4.241 0 004.276-4.276A4.241 4.241 0 0041.384 0h-18.49a4.241 4.241 0 00-4.278 4.277 4.241 4.241 0 004.277 4.276h4.654v5.787h-3.522c-.503 0-1.006.377-1.006 1.006v3.145h-9.937C11.698 18.49 0 18.868 0 31.95v13.08c0 .504.377 1.007 1.006 1.007h12.327c.503 0 1.007-.378 1.007-1.007v-7.798s-.126-1.383.88-2.39c.88-.88 2.264-1.383 4.151-1.383h29.56c.503 0 1.006-.377 1.006-1.006V20c-.126-.503-.503-1.006-1.006-1.006zM22.894 6.918c-1.384-.126-2.39-1.132-2.39-2.39 0-1.258 1.006-2.39 2.39-2.39H41.51c1.258 0 2.39 1.007 2.39 2.39 0 1.258-1.006 2.39-2.39 2.39H22.894zm11.32 1.761v5.786h-4.779V8.68h4.78zM12.58 44.151H2.139v-4.403h10.44v4.403zm35.597-12.705h-28.68c-2.516 0-4.403.63-5.535 2.013-1.51 1.635-1.383 3.774-1.383 3.774v.503H2.139V31.95c0-11.07 9.308-11.573 11.194-11.573h10.818c.503 0 1.006-.377 1.006-1.006v-3.019h13.837V20c0 .503.377 1.006 1.006 1.006h8.176v10.44zM7.925 48.428c-.378-.378-.88-.378-1.258 0-.503.377-4.403 4.276-3.648 7.798.377 1.761 1.635 3.02 4.025 3.774H7.8c2.264-.88 3.648-2.138 4.025-3.9.503-3.521-3.774-7.672-3.9-7.672zm1.886 7.421c-.251 1.006-1.006 1.761-2.515 2.264-1.384-.629-2.264-1.383-2.516-2.264-.377-1.761 1.258-4.15 2.516-5.409 1.132 1.384 2.893 3.648 2.515 5.409z" fill="#F3652E"/></svg>