<svg width="47" height="56" fill="none" xmlns="http://www.w3.org/2000/svg"><path d="M45.925 9.33C37.747 9.31 30.054 6.108 24.262.317a1.078 1.078 0 00-1.524 0C16.946 6.107 9.253 9.309 1.075 9.33A1.078 1.078 0 000 10.409v17.023c0 5.425 1.55 10.698 4.484 15.25a1.078 1.078 0 101.812-1.169 25.936 25.936 0 01-4.14-14.08V11.467c7.996-.278 15.503-3.403 21.344-8.888 5.84 5.485 13.347 8.61 21.344 8.888v15.966A25.963 25.963 0 0123.5 53.02a26.108 26.108 0 01-10.871-4.726 1.078 1.078 0 10-1.289 1.729 28.272 28.272 0 0011.974 5.153 1.071 1.071 0 00.372 0 28.207 28.207 0 0016.712-9.624A28.207 28.207 0 0047 27.432V10.41c0-.594-.48-1.077-1.075-1.078z" fill="#F3652E"/><path d="M23.271 49.897a1.076 1.076 0 00.458 0 23.05 23.05 0 0013.001-8.013 23.07 23.07 0 005.096-14.451v-12.22c0-.536-.395-.991-.927-1.067a35.728 35.728 0 01-16.742-7.049 1.078 1.078 0 00-1.314 0A35.728 35.728 0 016.1 14.147c-.532.075-.927.53-.927 1.067v12.219a23.07 23.07 0 005.096 14.451 23.053 23.053 0 0013.001 8.013zM7.331 27.433V16.138A37.899 37.899 0 0023.5 9.3a37.9 37.9 0 0016.17 6.838v11.294c0 9.811-6.638 18.128-16.17 20.307C13.967 45.56 7.33 37.244 7.33 27.433zm1.04 17.411c-.283 0-.561.115-.762.316-.2.2-.316.479-.316.762 0 .284.116.562.316.762.2.2.479.316.762.316.285 0 .562-.115.763-.316.2-.2.315-.478.315-.762 0-.283-.115-.562-.315-.762-.2-.2-.48-.316-.763-.316z" fill="#F3652E"/><path d="M23.5 39.777c4.815 0 8.733-3.917 8.733-8.733 0-1.154-.402-2.473-1.195-3.92l-.013-.022c-.174-.3-.35-.6-.527-.9-1.888-3.209-3.67-6.24-2.922-9.465a1.078 1.078 0 00-1.442-1.248c-1.89.74-3.578 2.224-4.757 4.182-.306.51-.561 1.027-.762 1.536-1.604-1.683-3.454-1.907-3.561-1.918a1.078 1.078 0 00-1.106 1.5c.013.03 1.315 3.125-.342 6.518a8.66 8.66 0 00-.84 3.737c0 4.816 3.918 8.733 8.734 8.733zm-5.953-11.53a10.508 10.508 0 00.955-6.05c.622.475 1.284 1.238 1.735 2.46a1.078 1.078 0 002.05-.663c-.278-.996.78-3.816 2.957-5.528.063 3.164 1.752 6.035 3.395 8.829.173.293.345.586.515.878.604 1.104.923 2.097.923 2.871a6.585 6.585 0 01-6.577 6.577 6.585 6.585 0 01-6.577-6.577c0-.977.21-1.918.624-2.798z" fill="#F3652E"/></svg>