<svg width="25" height="25" viewBox="0 0 25 25" fill="none" xmlns="http://www.w3.org/2000/svg">
<path d="M12.429 2.413C15.633 2.413 16.013 2.425 17.279 2.483C20.531 2.631 22.05 4.174 22.198 7.402C22.256 8.667 22.267 9.047 22.267 12.251C22.267 15.456 22.255 15.835 22.198 17.1C22.049 20.325 20.534 21.871 17.279 22.019C16.013 22.077 15.635 22.089 12.429 22.089C9.22495 22.089 8.84496 22.077 7.57996 22.019C4.31996 21.87 2.80896 20.32 2.66096 17.099C2.60296 15.834 2.59096 15.455 2.59096 12.25C2.59096 9.046 2.60396 8.667 2.66096 7.401C2.80996 4.174 4.32495 2.63 7.57996 2.482C8.84595 2.425 9.22495 2.413 12.429 2.413ZM12.429 0.25C9.16996 0.25 8.76196 0.264 7.48196 0.322C3.12396 0.522 0.701955 2.94 0.501955 7.302C0.442955 8.583 0.428955 8.991 0.428955 12.25C0.428955 15.509 0.442955 15.918 0.500955 17.198C0.700955 21.556 3.11896 23.978 7.48096 24.178C8.76196 24.236 9.16996 24.25 12.429 24.25C15.688 24.25 16.097 24.236 17.377 24.178C21.731 23.978 24.159 21.56 24.356 17.198C24.415 15.918 24.429 15.509 24.429 12.25C24.429 8.991 24.415 8.583 24.357 7.303C24.161 2.949 21.74 0.523 17.378 0.323C16.097 0.264 15.688 0.25 12.429 0.25V0.25ZM12.429 6.088C9.02596 6.088 6.26695 8.847 6.26695 12.25C6.26695 15.653 9.02596 18.413 12.429 18.413C15.832 18.413 18.591 15.654 18.591 12.25C18.591 8.847 15.832 6.088 12.429 6.088ZM12.429 16.25C10.22 16.25 8.42896 14.46 8.42896 12.25C8.42896 10.041 10.22 8.25 12.429 8.25C14.638 8.25 16.429 10.041 16.429 12.25C16.429 14.46 14.638 16.25 12.429 16.25ZM18.835 4.405C18.039 4.405 17.394 5.05 17.394 5.845C17.394 6.64 18.039 7.285 18.835 7.285C19.63 7.285 20.274 6.64 20.274 5.845C20.274 5.05 19.63 4.405 18.835 4.405Z" fill="white"/>
</svg>
