<svg width="33" height="18" viewBox="0 0 33 18" fill="none" xmlns="http://www.w3.org/2000/svg">
<path d="M28.1553 11.1642C29.2114 12.165 30.3261 13.1065 31.2733 14.2083C31.6917 14.6978 32.0879 15.203 32.3909 15.7712C32.8204 16.5788 32.4314 17.4676 31.6853 17.5158L27.047 17.5138C25.8508 17.6101 24.8964 17.1427 24.094 16.3488C23.4519 15.714 22.8571 15.0383 22.2397 14.382C21.9865 14.1138 21.7215 13.8614 21.405 13.6619C20.7719 13.263 20.2222 13.3851 19.8604 14.026C19.4919 14.678 19.4083 15.3998 19.3721 16.1264C19.3224 17.1864 18.9923 17.4651 17.8952 17.5137C15.5506 17.621 13.3254 17.2767 11.2582 16.1287C9.43577 15.1167 8.0226 13.6879 6.79249 12.0705C4.39763 8.92104 2.56354 5.46021 0.915188 1.90244C0.544142 1.10088 0.815509 0.670614 1.72674 0.655345C3.23984 0.626797 4.75276 0.628849 6.26767 0.653293C6.88266 0.662044 7.28977 1.00437 7.52725 1.56826C8.34589 3.52199 9.3476 5.38078 10.6049 7.10371C10.9398 7.5624 11.2812 8.02116 11.7674 8.34399C12.3053 8.70147 12.7148 8.58299 12.9678 8.00142C13.1284 7.63266 13.1987 7.23547 13.2349 6.84057C13.3548 5.48181 13.3706 4.12535 13.1604 2.77136C13.0313 1.92634 12.5409 1.37929 11.6721 1.21942C11.2288 1.13788 11.2948 0.977757 11.5095 0.732176C11.8822 0.30861 12.2329 0.0449219 12.9319 0.0449219H18.1738C18.999 0.20299 19.1823 0.562822 19.2953 1.36873L19.2998 7.02012C19.2907 7.33209 19.4603 8.25799 20.0393 8.46446C20.5027 8.61148 20.8081 8.25165 21.0862 7.96648C22.3413 6.67363 23.237 5.1457 24.0372 3.56357C24.3924 2.86787 24.6978 2.14543 24.9937 1.42353C25.2129 0.887889 25.557 0.624322 26.1786 0.635971L31.2237 0.640316C31.3733 0.640316 31.5247 0.642429 31.6695 0.66651C32.5196 0.807136 32.7527 1.16208 32.4901 1.96781C32.0763 3.23193 31.2714 4.28541 30.4843 5.34372C29.643 6.47361 28.7431 7.56488 27.9088 8.70147C27.1422 9.73956 27.2031 10.2627 28.1553 11.1642Z" fill="white"/>
</svg>
