<svg width="100" height="100" viewBox="0 0 100 100" fill="none" xmlns="http://www.w3.org/2000/svg">
<circle cx="50" cy="50" r="50" fill="#F3652E"/>
<path d="M57.932 62.2V67H41.732V63.3L51.532 46C52.2987 44.6 52.682 43.0333 52.682 41.3C52.682 38.3 51.7487 36.8 49.882 36.8C47.982 36.8 47.032 38.3 47.032 41.3V42.7H41.932V41.15C41.932 38.4167 42.6487 36.2167 44.082 34.55C45.5487 32.85 47.482 32 49.882 32C52.282 32 54.1987 32.85 55.632 34.55C57.0654 36.25 57.782 38.5 57.782 41.3C57.782 43.9 57.2654 46.0833 56.232 47.85L48.082 62.2H57.932Z" fill="white"/>
</svg>
