<svg width="100" height="100" viewBox="0 0 100 100" fill="none" xmlns="http://www.w3.org/2000/svg">
<circle cx="50" cy="50" r="50" fill="#F3652E"/>
<path d="M51.6135 45.35C53.6801 45.8167 55.2135 46.75 56.2135 48.15C57.2135 49.55 57.7135 51.5833 57.7135 54.25V58C57.7135 60.8 56.9801 63.0667 55.5135 64.8C54.0468 66.5333 52.0968 67.4 49.6635 67.4C47.2301 67.4 45.2801 66.5333 43.8135 64.8C42.3468 63.0667 41.6135 60.8 41.6135 58V55.45H46.7135V57.85C46.7135 59.3833 46.9635 60.5667 47.4635 61.4C47.9635 62.2 48.6968 62.6 49.6635 62.6C50.6301 62.6 51.3635 62.2 51.8635 61.4C52.3635 60.5667 52.6135 59.3833 52.6135 57.85V54.6C52.6135 52.9333 52.3468 51.7167 51.8135 50.95C51.2801 50.15 50.4801 49.75 49.4135 49.75H45.3635V46.85L51.6135 37.2H41.9135V32.4H57.6635V36L51.6135 45.35Z" fill="white"/>
</svg>
