<svg width="100" height="100" fill="none" xmlns="http://www.w3.org/2000/svg"><circle cx="50" cy="50" r="50" fill="#F3652E"/><path d="M51.614 45.35c2.066.467 3.6 1.4 4.6 2.8 1 1.4 1.5 3.433 1.5 6.1V58c0 2.8-.734 5.067-2.2 6.8-1.467 1.733-3.417 2.6-5.85 2.6-2.434 0-4.384-.867-5.85-2.6-1.467-1.733-2.2-4-2.2-6.8v-2.55h5.1v2.4c0 1.533.25 2.717.75 3.55.5.8 1.233 1.2 2.2 1.2.966 0 1.7-.4 2.2-1.2.5-.833.75-2.017.75-3.55V54.6c0-1.667-.267-2.883-.8-3.65-.534-.8-1.334-1.2-2.4-1.2h-4.05v-2.9l6.25-9.65h-9.7v-4.8h15.75V36l-6.05 9.35z" fill="#fff"/></svg>