<svg width="50" height="50" viewBox="0 0 50 50" fill="none" xmlns="http://www.w3.org/2000/svg">
<path d="M44.6651 9.56413H46.21C46.7489 9.56413 47.1859 9.12712 47.1859 8.58821C47.1859 8.04931 46.7489 7.61229 46.21 7.61229H42.5015C41.9626 7.61229 41.5256 8.04931 41.5256 8.58821V12.2967C41.5256 12.8356 41.9626 13.2726 42.5015 13.2726C43.0404 13.2726 43.4774 12.8356 43.4774 12.2967V11.2229C46.4386 15.1872 48.0482 19.9972 48.0482 25C48.0482 37.7088 37.7088 48.0482 25 48.0482C12.2912 48.0482 1.95184 37.7088 1.95184 25C1.95184 12.2912 12.2912 1.95184 25 1.95184C25.9399 1.95184 26.8859 2.00894 27.8118 2.12146C28.3461 2.18607 28.8334 1.80555 28.8984 1.27046C28.9635 0.735455 28.5825 0.24886 28.0474 0.183864C27.0436 0.0618735 26.0184 0 25 0C18.3223 0 12.0441 2.60044 7.32234 7.32234C2.60044 12.0441 0 18.3223 0 25C0 31.6777 2.60044 37.9559 7.32234 42.6777C12.0441 47.3996 18.3223 50 25 50C31.6777 50 37.9559 47.3996 42.6777 42.6777C47.3996 37.9559 50 31.6777 50 25C50 19.3649 48.1174 13.9552 44.6651 9.56413Z" fill="#F3652E"/>
<path d="M10.586 14.7378C10.1305 14.4495 9.52771 14.5851 9.23933 15.0403C7.0114 18.5591 6.02513 22.7909 6.46225 26.9562C6.9058 31.1833 8.80836 35.1696 11.8195 38.1808C15.4533 41.8146 20.2267 43.6316 25.0001 43.6316C29.7735 43.6316 34.5467 41.8147 38.1807 38.1808C45.4485 30.913 45.4485 19.0873 38.1807 11.8197C35.1742 8.81322 31.1945 6.91135 26.9744 6.46438C22.8167 6.02375 18.5895 7.0023 15.0722 9.21931C14.6162 9.50672 14.4796 10.1093 14.767 10.5653C15.0544 11.0213 15.657 11.1579 16.1129 10.8706C22.7432 6.69167 31.25 7.64934 36.8004 13.1998C43.3072 19.7066 43.3072 30.2938 36.8004 36.8005C30.2938 43.3074 19.7064 43.3074 13.1997 36.8005C7.72597 31.3268 6.75395 22.6144 10.8885 16.0845C11.1767 15.6291 11.0414 15.0261 10.586 14.7378Z" fill="#F3652E"/>
<path d="M37.6871 25.9918H38.8906C39.4295 25.9918 39.8665 25.5547 39.8665 25.0158C39.8665 24.4769 39.4295 24.0399 38.8906 24.0399H37.6871C37.1482 24.0399 36.7112 24.4769 36.7112 25.0158C36.7112 25.5547 37.1481 25.9918 37.6871 25.9918Z" fill="#F3652E"/>
<path d="M10.1335 24.9841C10.1335 25.523 10.5705 25.96 11.1094 25.96H12.3129C12.8518 25.96 13.2888 25.523 13.2888 24.9841C13.2888 24.4452 12.8518 24.0082 12.3129 24.0082H11.1094C10.5705 24.0082 10.1335 24.4451 10.1335 24.9841Z" fill="#F3652E"/>
<path d="M25.9917 12.3129V11.1093C25.9917 10.5704 25.5547 10.1334 25.0158 10.1334C24.4769 10.1334 24.0399 10.5704 24.0399 11.1093V12.3129C24.0399 12.8518 24.4769 13.2888 25.0158 13.2888C25.5547 13.2888 25.9917 12.8518 25.9917 12.3129Z" fill="#F3652E"/>
<path d="M24.0083 37.6871V38.8906C24.0083 39.4295 24.4453 39.8665 24.9842 39.8665C25.5231 39.8665 25.9601 39.4295 25.9601 38.8906V37.6871C25.9601 37.1482 25.5231 36.7112 24.9842 36.7112C24.4453 36.7112 24.0083 37.1481 24.0083 37.6871Z" fill="#F3652E"/>
<path d="M20.1083 18.7281C19.7271 18.3471 19.1093 18.3471 18.728 18.7281C18.3469 19.1092 18.3469 19.7271 18.728 20.1083L22.0355 23.4158C21.7821 23.8882 21.6379 24.4276 21.6379 25C21.6379 26.8539 23.1461 28.3621 25 28.3621C26.8538 28.3621 28.362 26.8539 28.362 25C28.362 24.4276 28.2178 23.8882 27.9644 23.4158L34.6381 16.7422C35.0192 16.3611 35.0192 15.7431 34.6381 15.3619C34.2569 14.9809 33.6391 14.9809 33.2578 15.3619L26.5842 22.0356C26.1119 21.7821 25.5725 21.638 25 21.638C24.4275 21.638 23.8881 21.7822 23.4158 22.0356L20.1083 18.7281ZM26.4102 25C26.4102 25.7776 25.7776 26.4102 25 26.4102C24.2224 26.4102 23.5898 25.7776 23.5898 25C23.5898 24.2224 24.2224 23.5898 25 23.5898C25.7776 23.5898 26.4102 24.2224 26.4102 25Z" fill="#F3652E"/>
<path d="M13.1992 13.1992C13.3817 13.0177 13.486 12.7659 13.486 12.5092C13.486 12.2526 13.3817 12.0018 13.1992 11.8193C13.0176 11.6378 12.7667 11.5333 12.5092 11.5333C12.2525 11.5333 12.0007 11.6377 11.8192 11.8193C11.6378 12.0008 11.5333 12.2526 11.5333 12.5092C11.5333 12.7669 11.6377 13.0177 11.8192 13.1992C12.0007 13.3806 12.2525 13.4852 12.5092 13.4852C12.7667 13.4852 13.0176 13.3806 13.1992 13.1992Z" fill="#F3652E"/>
<path d="M31.7602 3.91583C32.018 3.91583 32.2698 3.81229 32.4512 3.62989C32.6327 3.44837 32.7372 3.19746 32.7372 2.93991C32.7372 2.68324 32.6328 2.43146 32.4512 2.24993C32.2698 2.06851 32.018 1.96399 31.7602 1.96399C31.5036 1.96399 31.2518 2.06841 31.0703 2.24993C30.8888 2.43146 30.7843 2.68324 30.7843 2.93991C30.7843 3.19755 30.8887 3.44837 31.0703 3.62989C31.2518 3.81229 31.5036 3.91583 31.7602 3.91583Z" fill="#F3652E"/>
</svg>
