<svg width="47" height="56" viewBox="0 0 47 56" fill="none" xmlns="http://www.w3.org/2000/svg">
<path d="M45.9249 9.33073C37.7468 9.30863 30.0536 6.10702 24.2622 0.315673C23.8413 -0.105171 23.1588 -0.105278 22.7377 0.315673C16.9464 6.10702 9.25307 9.30863 1.07507 9.33073C0.480888 9.33234 0 9.81452 0 10.4087V27.4325C0 32.8568 1.55057 38.1298 4.48419 42.6813C4.80672 43.1818 5.47388 43.326 5.97428 43.0034C6.47468 42.6809 6.61892 42.0137 6.29638 41.5133C3.58763 37.3107 2.15596 32.4417 2.15596 27.4325V11.4666C10.1525 11.1892 17.6593 8.06356 23.5 2.5789C29.3407 8.06356 36.8475 11.1892 44.844 11.4666V27.4325C44.844 40.0342 35.8798 50.765 23.5 53.0196C19.5727 52.3032 15.8175 50.6715 12.629 48.2943C12.1517 47.9384 11.4763 48.0367 11.1205 48.5142C10.7646 48.9915 10.863 49.6669 11.3404 50.0227C14.8483 52.6381 18.9889 54.4202 23.3143 55.1764C23.3757 55.1872 23.4378 55.1925 23.4999 55.1925C23.562 55.1925 23.6241 55.1871 23.6856 55.1764C30.2047 54.0367 36.1398 50.6187 40.3975 45.5521C44.6552 40.4856 47 34.0505 47 27.4325V10.4087C47 9.81452 46.5191 9.33234 45.9249 9.33073Z" fill="#F3652E"/>
<path d="M23.2712 49.8967C23.3466 49.9131 23.4233 49.9211 23.5 49.9211C23.5766 49.9211 23.6534 49.9129 23.7287 49.8967C28.8359 48.7878 33.4532 45.9422 36.7303 41.8841C40.0161 37.8153 41.8257 32.683 41.8257 27.4326V15.2136C41.8257 14.6767 41.4306 14.2216 40.8989 14.1463C34.8192 13.2844 29.0299 10.847 24.1573 7.09724C23.7697 6.79897 23.2301 6.79897 22.8425 7.09724C17.9699 10.8469 12.1808 13.2844 6.10094 14.1463C5.56927 14.2216 5.17419 14.6766 5.17419 15.2136V27.4326C5.17419 32.683 6.9838 37.8153 10.2696 41.8841C13.5468 45.9421 18.1641 48.7876 23.2712 49.8967ZM7.33027 27.4326V16.1376C13.1687 15.1605 18.7252 12.8115 23.5 9.30042C28.2749 12.8115 33.8314 15.1605 39.6697 16.1376V27.4325C39.6697 37.2435 33.0325 45.5603 23.5 47.7387C13.9675 45.5604 7.33027 37.2436 7.33027 27.4326Z" fill="#F3652E"/>
<path d="M8.37144 44.844C8.08793 44.844 7.80981 44.9593 7.6093 45.1598C7.4088 45.3603 7.29346 45.6385 7.29346 45.922C7.29346 46.2055 7.4088 46.4836 7.6093 46.6841C7.80981 46.8846 8.08793 47 8.37144 47C8.65603 47 8.93307 46.8846 9.13357 46.6841C9.33408 46.4836 9.44942 46.2055 9.44942 45.922C9.44942 45.6385 9.33408 45.3603 9.13357 45.1598C8.93307 44.9593 8.65495 44.844 8.37144 44.844Z" fill="#F3652E"/>
<path d="M23.4999 39.7774C28.3154 39.7774 32.2331 35.8597 32.2331 31.0443C32.2331 29.8898 31.831 28.571 31.0378 27.1247C31.0335 27.117 31.0293 27.1093 31.0249 27.1018C30.851 26.8023 30.6745 26.5023 30.4976 26.2018C28.6102 22.9933 26.8274 19.9626 27.5763 16.7368C27.6667 16.3471 27.534 15.9393 27.2313 15.6775C26.9287 15.416 26.5064 15.3434 26.1335 15.4891C24.2448 16.2282 22.5557 17.7134 21.3774 19.6714C21.0709 20.1805 20.8155 20.6983 20.6154 21.2072C19.0112 19.5243 17.1606 19.3004 17.0535 19.2889C16.6722 19.2477 16.2976 19.4122 16.0699 19.721C15.8423 20.0298 15.7959 20.4362 15.9481 20.7884C15.9615 20.8192 17.2628 23.9137 15.6061 27.3071C15.6039 27.3115 15.6019 27.3157 15.5999 27.3201C15.0471 28.4914 14.7668 29.7443 14.7668 31.0443C14.7667 35.8597 18.6844 39.7774 23.4999 39.7774ZM17.5467 28.2461C18.6698 25.9414 18.7124 23.7516 18.5023 22.1977C19.1237 22.672 19.7859 23.4347 20.2371 24.6566C20.4374 25.199 21.0298 25.4866 21.58 25.3088C22.1302 25.1309 22.442 24.5506 22.2867 23.9936C22.0092 22.9976 23.0671 20.1778 25.2444 18.4659C25.3068 21.6296 26.9959 24.501 28.6394 27.295C28.8119 27.5881 28.9839 27.8806 29.1536 28.1728C29.7578 29.2774 30.077 30.2701 30.077 31.0443C30.0771 34.6709 27.1266 37.6215 23.4999 37.6215C19.8732 37.6215 16.9227 34.6709 16.9227 31.0443C16.9227 30.0672 17.1327 29.1257 17.5467 28.2461Z" fill="#F3652E"/>
</svg>
