<svg width="38" height="70" viewBox="0 0 38 70" fill="none" xmlns="http://www.w3.org/2000/svg">
<path d="M27.4338 33.9135V28.8383C27.4338 28.2735 26.9761 27.8158 26.4113 27.8158C25.8464 27.8158 25.3887 28.2735 25.3887 28.8383V34.5556C25.3887 34.9548 25.6209 35.3175 25.9834 35.4845C31.9554 38.2348 35.8141 44.2577 35.8141 50.8285C35.8141 55.361 34.0428 59.6161 30.8262 62.81C27.639 65.9749 23.419 67.7131 18.9302 67.7131C18.8895 67.7131 18.8481 67.7129 18.8075 67.7127C14.4558 67.6819 10.3263 65.9835 7.17985 62.9304C4.03272 59.8767 2.21312 55.8009 2.05633 51.454C1.81188 44.6763 5.61562 38.4314 11.7471 35.5445C12.1054 35.3758 12.334 35.0154 12.334 34.6194V8.57251C12.334 4.97341 15.2624 2.0451 18.8615 2.0451C22.4607 2.0451 25.3889 4.97341 25.3889 8.57251V24.4806C25.3889 25.0455 25.8466 25.5032 26.4114 25.5032C26.9763 25.5032 27.434 25.0455 27.434 24.4806V8.57251C27.4338 3.8456 23.5881 0 18.8613 0C14.1346 0 10.2888 3.8456 10.2888 8.57251V33.9829C3.76113 37.3338 -0.253673 44.1492 0.0124624 51.5278C0.188341 56.4044 2.22799 60.9752 5.75551 64.398C9.2818 67.8198 13.9119 69.7233 18.793 69.7578C18.839 69.758 18.8846 69.7582 18.9306 69.7582C23.9625 69.7582 28.6942 67.8092 32.2672 64.2612C35.8731 60.6805 37.8592 55.9101 37.8592 50.8286C37.8591 43.6824 33.7889 37.1147 27.4338 33.9135Z" fill="#F3652E"/>
<path d="M8.50179 41.7222C8.04969 41.3837 7.40875 41.4756 7.07036 41.9275C5.14837 44.493 4.08997 47.6541 4.08997 50.8285C4.08997 59.0111 10.7469 65.668 18.9295 65.668C27.112 65.668 33.769 59.0111 33.769 50.8285C33.769 45.0533 30.3773 39.7595 25.128 37.342L23.3436 36.5203V8.57252C23.3436 6.10095 21.3327 4.09021 18.8613 4.09021C16.3899 4.09021 14.379 6.10095 14.379 8.57252V36.5656L12.618 37.3946C11.8607 37.7513 11.124 38.1798 10.4283 38.6683C9.96608 38.993 9.85455 39.6308 10.1792 40.0928C10.5038 40.5549 11.1413 40.6668 11.6037 40.3419C12.2034 39.9206 12.8379 39.5515 13.4891 39.2448L15.2573 38.4126C15.966 38.0789 16.4241 37.3571 16.4241 36.5737V30.6052H21.2985V36.5283C21.2985 37.3188 21.7623 38.0432 22.4806 38.3744L24.2725 39.1996C28.7991 41.2843 31.7239 45.8489 31.7239 50.8285C31.7239 57.8833 25.9842 63.6229 18.9295 63.6229C11.8747 63.6229 6.13506 57.8833 6.13506 50.8285C6.13506 48.0932 7.0484 45.3677 8.70698 43.1538C9.04565 42.7017 8.95376 42.0609 8.50179 41.7222ZM18.8613 6.13531C20.2051 6.13531 21.2985 7.22875 21.2985 8.57252V17.1174H16.4241V8.57252C16.4241 7.22875 17.5174 6.13531 18.8613 6.13531ZM16.4241 28.5601V19.1624H21.2985V28.5601H16.4241Z" fill="#F3652E"/>
<path d="M22.548 44.7631L22.5375 44.7498C21.5023 43.4386 20.5086 42.3384 20.0083 41.7991C19.7128 41.481 19.2947 41.2986 18.861 41.2986C18.4276 41.2987 18.0097 41.481 17.7146 41.7991C16.2184 43.4112 12.6319 47.5055 11.6431 50.6958C11.476 51.2352 11.7777 51.8079 12.3172 51.9752C12.8566 52.1421 13.4293 51.8407 13.5966 51.3012C14.4055 48.6913 17.4898 45.0887 18.8614 43.5746C19.3821 44.1493 20.1448 45.0194 20.9312 46.0155L20.9417 46.0289C21.3649 46.5651 21.5568 47.261 21.4677 47.9383L21.2837 49.3384C21.2101 49.898 21.4467 50.4534 21.9012 50.788C22.3558 51.1226 22.9564 51.1832 23.4687 50.947L23.9233 50.7373C24.2315 51.4933 24.3056 51.9921 24.3056 52.2966C24.3056 55.2987 21.8633 57.741 18.8612 57.741C16.8423 57.741 14.9989 56.6315 14.0504 54.8456C13.7855 54.3469 13.1666 54.1576 12.6675 54.4223C12.1687 54.6872 11.9792 55.3063 12.2441 55.8052C13.5485 58.2608 16.084 59.7863 18.8612 59.7863C22.9908 59.7863 26.3507 56.4265 26.3507 52.2967C26.3507 51.4001 26.0535 50.3675 25.4421 49.1403C25.1342 48.522 24.401 48.2643 23.7728 48.5546L23.4286 48.7134L23.4954 48.205C23.6558 46.9833 23.3099 45.7284 22.548 44.7631Z" fill="#F3652E"/>
</svg>
