<svg width="59" height="64" viewBox="0 0 59 64" fill="none" xmlns="http://www.w3.org/2000/svg">
<path d="M33.5686 19.8185L33.5681 19.8178C33.3114 19.407 32.7459 19.2505 32.331 19.5095C32.0742 19.6638 31.921 19.9201 31.87 20.1753L31.8697 20.1752L31.8693 20.18C31.6765 22.0593 30.5692 23.1164 29.6579 23.5481L29.6579 23.548L29.6564 23.5488C28.9232 23.9272 28.1893 23.7398 27.6283 23.3101C27.0655 22.879 26.6857 22.2104 26.6619 21.6441C26.6389 20.6002 27.2689 19.9753 28.1 19.1507C28.1207 19.1301 28.1416 19.1094 28.1626 19.0885C29.0221 18.2351 30.0634 17.1697 30.7489 15.2356L30.749 15.2353C31.5583 12.9056 31.0187 11.0625 29.9993 9.7053C28.9818 8.35075 27.4879 7.48162 26.3857 7.08962C25.968 6.93323 25.5569 7.14491 25.3054 7.49704L25.3052 7.49689L25.3027 7.50129C25.0969 7.86134 25.1484 8.32424 25.4568 8.6326C25.4572 8.63303 25.4578 8.63359 25.4585 8.63427C25.4917 8.66725 25.8153 8.98783 25.9732 9.60172C26.134 10.2272 26.1245 11.1638 25.4481 12.4199L25.448 12.4201C25.2559 12.7803 25.0657 13.0051 24.8298 13.1761C24.5925 13.3481 24.3063 13.4679 23.9165 13.614L23.9162 13.6142C22.6439 14.1035 21.5175 14.8378 20.5868 15.8663C19.7502 16.7279 19.3456 17.8095 19.1499 18.9288C18.9651 19.9856 18.9659 21.0799 18.9665 22.0585C18.9665 22.1161 18.9666 22.1733 18.9666 22.23C18.9666 22.6929 18.9666 23.2633 18.9362 23.7484C18.9211 23.991 18.8984 24.2107 18.8648 24.3841C18.848 24.4708 18.8286 24.5447 18.8067 24.6035C18.7869 24.6566 18.7661 24.6942 18.7455 24.7181C18.612 24.7577 18.3872 24.7466 18.1567 24.6659C17.921 24.5834 17.689 24.4314 17.5505 24.2012C17.3167 23.7795 17.3376 23.1626 17.4469 22.5738C17.5554 21.989 17.7483 21.4455 17.8458 21.1775C18.0507 20.7142 17.844 20.1995 17.3825 19.9938C17.0725 19.8393 16.6606 19.8905 16.4014 20.1491C11.5674 24.6417 11.5173 29.7213 11.5173 29.9227C11.5173 35.7448 16.0682 41.2198 23.9341 41.2198C27.2032 41.2198 30.0991 40.4879 32.307 38.9222C34.5161 37.3556 36.032 34.9575 36.5451 31.6347C36.961 29.0172 36.2515 26.1226 35.4228 23.856C34.5938 21.5883 33.6428 19.9422 33.5686 19.8185ZM19.6786 31.7944C20.0784 33.2227 20.8268 34.0359 21.6946 34.2498C22.5838 34.4689 23.5755 34.0534 24.4104 33.0712L24.4112 33.0702C25.4168 31.8252 25.9546 30.2998 25.9794 28.6772C26.7608 29.4444 27.6435 30.4449 28.328 31.5856C29.0371 32.7676 29.5315 34.0969 29.4833 35.4715L29.4833 35.4716C29.4351 36.9889 28.7865 37.9712 27.7731 38.5768C26.7561 39.1846 25.3672 39.4156 23.8372 39.4157C20.603 39.3673 18.7266 37.1506 18.6771 34.696C18.7709 33.6686 19.0903 32.6871 19.6786 31.7944ZM16.8243 34.6455C16.8243 35.7068 17.0847 36.7684 17.6058 37.7078C15.0421 36.0408 13.4183 33.0999 13.3701 29.9732C13.5608 27.7373 14.3113 25.6422 15.6215 23.8243C15.6749 24.2649 15.7768 24.6712 16.0029 25.0782L16.0031 25.0786C16.4242 25.8217 17.1299 26.3044 17.8663 26.49C18.6021 26.6755 19.3741 26.5655 19.9246 26.1151L19.925 26.1148C20.3765 25.7385 20.5987 25.1768 20.7091 24.5082C20.8194 23.8408 20.8194 23.0584 20.8194 22.233V22.23C20.8194 22.1593 20.8193 22.0883 20.8192 22.017C20.8184 21.1542 20.8175 20.2534 20.9405 19.4256C21.0737 18.5295 21.3513 17.7264 21.9245 17.1531L21.9246 17.1531L21.9256 17.152C22.6995 16.3297 23.618 15.7013 24.6326 15.3146C25.6648 14.9703 26.552 14.2813 27.0456 13.2949C27.6154 12.2972 27.9096 11.2067 27.8827 10.0684C29.0899 11.0721 29.4643 12.4342 29.2465 13.8113C29.0235 15.2221 28.1784 16.6484 26.9684 17.7131L26.968 17.7135C25.9923 18.5916 24.8085 20.017 24.8579 21.6959L24.8579 21.6964C24.9073 22.907 25.6229 24.089 26.6501 24.8148C27.6781 25.5412 29.0235 25.814 30.3326 25.197C31.4798 24.7187 32.394 23.8226 32.9406 22.6902C33.9087 24.8421 35.1713 28.3704 34.7422 31.3758C34.2214 34.5472 32.7314 36.5129 30.8149 37.7297C31.1162 37.0378 31.2872 36.3053 31.2874 35.5717C31.4095 32.8754 29.9636 30.4535 28.4576 28.6853C26.9529 26.9186 25.3813 25.7966 25.2284 25.6944C24.5044 25.1781 23.5813 25.9038 23.8377 26.7242L23.8381 26.7253C24.3688 28.2933 24.1036 29.7651 23.6208 30.8333C23.3793 31.3675 23.084 31.7994 22.8084 32.0908C22.6705 32.2365 22.5386 32.346 22.4219 32.4157C22.304 32.4862 22.2083 32.5121 22.14 32.5025C22.0024 32.4812 21.8699 32.3735 21.7465 32.1914C21.6239 32.0105 21.5161 31.7644 21.4256 31.4837C21.2447 30.9229 21.1358 30.2341 21.1115 29.6782C21.1106 28.9059 20.1841 28.4933 19.6162 29.0091C17.9999 30.4296 16.9714 32.4866 16.8244 34.6421L16.8243 34.6421V34.6455Z" fill="#F3652E" stroke="#F3652E" stroke-width="0.1"/>
<path d="M6.41679 39.1085L6.41689 39.1086C7.24134 40.0785 8.16217 41.0002 9.13153 41.8258V57.6264C9.13153 60.8192 11.7347 63.3726 14.8773 63.4217H14.8781H33.331C36.524 63.4217 39.0771 60.8183 39.1262 57.6272V57.6264V54.8038H45.0162C50.6433 54.8038 55.1444 50.2531 55.1933 44.6271V44.6267V40.5851C56.9997 40.5101 58.4068 38.9885 58.4068 37.1773C58.4068 35.2996 56.875 33.7678 54.9973 33.7678H49.5929C47.7151 33.7678 46.1834 35.2996 46.1834 37.1773C46.1834 39.0382 47.6397 40.511 49.4455 40.5852V44.6267C49.4455 47.0815 47.4722 49.0563 44.9669 49.1047H39.1262V41.8258C48.8686 33.5284 50.0821 18.9022 41.8409 9.14926C33.5947 -0.609545 18.908 -1.82933 9.14926 6.41679C-0.609545 14.663 -1.82933 29.3497 6.41679 39.1085ZM24.1289 45.5017H24.1287C12.3253 45.5503 2.75598 35.9813 2.75598 24.1289C2.75598 12.3252 12.3252 2.75598 24.1289 2.75598C35.9325 2.75598 45.5017 12.3252 45.5017 24.1289C45.5017 35.9325 35.9325 45.5017 24.1289 45.5017ZM37.2734 57.5778V57.6278H37.3218C37.2952 59.8147 35.5273 61.5209 33.3304 61.5689H14.8781C12.6672 61.5689 10.9353 59.7909 10.8869 57.5772V43.2135C18.8055 48.7511 29.3549 48.7511 37.2734 43.2135V57.5778ZM44.967 52.9997L39.1262 52.9997V50.9088H45.0162C48.4523 50.9088 51.2492 48.1109 51.2983 44.6274V44.6267V40.5868H53.3887L53.3406 44.6261V44.6267C53.3406 49.224 49.6143 52.9511 44.9673 52.9997C44.9672 52.9997 44.9671 52.9997 44.967 52.9997ZM55.0446 38.7827H55.0446H55.0445H55.0444H55.0444H55.0443H55.0443H55.0443H55.0442H55.0442H55.0442H55.0442H55.0441H55.0441H55.0441H55.044H55.044H55.044H55.0439H55.0439H55.0438H55.0438H55.0438H55.0437H55.0437H55.0437H55.0436H55.0436H55.0436H55.0435H55.0435H55.0434H55.0434H55.0434H55.0433H55.0433H55.0432H55.0432H55.0431H55.0431H55.0431H55.043H55.043H55.0429H55.0429H55.0428H55.0428H55.0427H55.0427H55.0427H55.0426H55.0426H55.0425H55.0425H55.0424H55.0424H55.0423H55.0423H55.0422H55.0422H55.0421H55.042H55.042H55.0419H55.0419H55.0418H55.0418H55.0417H55.0417H55.0416H55.0415H55.0415H55.0414H55.0414H55.0413H55.0413H55.0412H55.0411H55.0411H55.041H55.041H55.0409H55.0408H55.0408H55.0407H55.0406H55.0406H55.0405H55.0404H55.0404H55.0403H55.0402H55.0402H55.0401H55.04H55.04H55.0399H55.0398H55.0397H55.0397H55.0396H55.0395H55.0394H55.0394H55.0393H55.0392H55.0391H55.0391H55.039H55.0389H55.0388H55.0387H55.0387H55.0386H55.0385H55.0384H55.0383H55.0383H55.0382H55.0381H55.038H55.0379H55.0378H55.0377H55.0377H55.0376H55.0375H55.0374H55.0373H55.0372H55.0371H55.037H55.0369H55.0368H55.0367H55.0367H55.0366H55.0365H55.0364H55.0363H55.0362H55.0361H55.036H55.0359H55.0358H55.0357H55.0356H55.0355H55.0354H55.0353H55.0352H55.0351H55.0349H55.0348H55.0347H55.0346H55.0345H55.0344H55.0343H55.0342H55.0341H55.034H55.0339H55.0337H55.0336H55.0335H55.0334H55.0333H55.0332H55.033H55.0329H55.0328H55.0327H55.0326H55.0324H55.0323H55.0322H55.0321H55.032H55.0318H55.0317H55.0316H55.0315H55.0313H55.0312H55.0311H55.0309H55.0308H55.0307H55.0305H55.0304H55.0303H55.0301H55.03H55.0299H55.0297H55.0296H55.0295H55.0293H55.0292H55.029H55.0289H55.0288H55.0286H55.0285H55.0283H55.0282H55.028H55.0279H55.0277H55.0276H55.0274H55.0273H55.0271H55.027H55.0268H55.0267H55.0265H55.0264H55.0262H55.0261H55.0259H55.0257H55.0256H55.0254H55.0253H55.0251H55.0249H55.0248H55.0246H55.0244H55.0243H55.0241H55.0239H55.0238H55.0236H55.0234H55.0233H55.0231H55.0229H55.0228H55.0226H55.0224H55.0222H55.022H55.0219H55.0217H55.0215H55.0213H55.0211H55.021H55.0208H55.0206H55.0204H55.0202H55.02H55.0199H55.0197H55.0195H55.0193H55.0191H55.0189H55.0187H55.0185H55.0183H55.0181H55.0179H55.0177H55.0175H55.0173H55.0171H55.0169H55.0167H55.0165H55.0163H55.0161H55.0159H55.0157H55.0155H55.0153H55.0151H55.0149H55.0146H55.0144H55.0142H55.014H55.0138H55.0136H55.0133H55.0131H55.0129H55.0127H55.0125H55.0122H55.012H55.0118H55.0116H55.0113H55.0111H55.0109H55.0107H55.0104H55.0102H55.01H55.0097H55.0095H55.0093H55.009H55.0088H55.0085H55.0083H55.0081H55.0078H55.0076H55.0073H55.0071H55.0068H55.0066H55.0063H55.0061H55.0058H55.0056H55.0053H55.0051H55.0048H55.0046H55.0043H55.0041H55.0038H55.0035H55.0033H55.003H55.0028H55.0025H55.0022H55.002H55.0017H55.0014H55.0012H55.0009H55.0006H55.0003H55.0001H54.9998H54.9995H54.9992H54.999H54.9987H54.9984H54.9981H54.9978H54.9976H54.9973H49.5929C48.6959 38.7827 47.9861 38.0747 47.9387 37.1747C47.8917 36.2825 48.6435 35.5714 49.5455 35.5232H49.5929H54.9973C55.8943 35.5232 56.6041 36.2313 56.6514 37.1313C56.6984 38.0235 55.9466 38.7346 55.0446 38.7827Z" fill="#F3652E" stroke="#F3652E" stroke-width="0.1"/>
</svg>
