<svg width="51" height="50" viewBox="0 0 51 50" fill="none" xmlns="http://www.w3.org/2000/svg">
<path d="M50 18.5703H29.333C29.3322 18.5703 29.3314 18.5704 29.3306 18.5704C28.7737 18.5662 28.324 19.0162 28.324 19.5703C28.324 20.0859 28.7142 20.5103 29.2154 20.5645C37.7878 21.6962 44.008 26.5851 44.008 32.1923C44.008 35.2825 42.1385 38.2176 38.7436 40.4572C36.5437 41.9084 33.8835 42.9525 30.9742 43.5321C32.2649 42.0156 32.9395 39.9634 32.6873 37.7844C31.7856 29.9945 25.5033 25.4353 25.2363 25.2449C24.9349 25.0302 24.5396 24.9993 24.2088 25.1649C23.8778 25.3304 23.6653 25.6653 23.6563 26.0351C23.6157 27.7127 22.467 29.4649 21.2509 31.32C19.6368 33.7821 17.8075 36.5724 18.3003 39.8377C18.5076 41.2096 19.0978 42.4857 19.989 43.5244C17.0911 42.9425 14.4417 41.8998 12.2501 40.4527C8.85936 38.2137 6.99198 35.2802 6.99198 32.1924C6.99198 26.5851 13.2122 21.6963 21.7846 20.5646C22.2858 20.5104 22.676 20.086 22.676 19.5704C22.676 19.0163 22.2259 18.5663 21.6694 18.5705C21.6686 18.5705 21.6678 18.5704 21.667 18.5704H0.999978C0.447744 18.5703 0 19.018 0 19.5703V48.9943C0 49.5466 0.447744 49.9943 0.999978 49.9943H50C50.5523 49.9943 51 49.5465 51 48.9943V19.5703C51 19.018 50.5522 18.5703 50 18.5703ZM22.9234 32.4166C23.8696 30.9733 24.839 29.4947 25.3297 27.9425C27.088 29.6025 30.1347 33.1254 30.7007 38.0144C30.8724 39.498 30.4623 40.9008 29.6513 41.9815C29.5991 40.6682 28.8951 39.6072 28.2623 38.6537C27.7358 37.8602 27.2387 37.1107 27.1823 36.3306C27.1563 35.9701 26.9378 35.6515 26.6107 35.4976C26.2837 35.3437 25.899 35.3782 25.6047 35.5881C25.4754 35.6802 22.4337 37.8875 21.9977 41.6603C21.9555 42.0242 21.9636 42.3812 22.0145 42.7251C21.1084 41.9196 20.4693 40.8062 20.2779 39.5393C19.899 37.0298 21.4365 34.6846 22.9234 32.4166ZM27.6312 42.4384C27.4792 43.4472 26.5422 44.1507 25.5426 44.0066C24.5479 43.8632 23.8634 42.9338 23.9844 41.8901C24.1674 40.3067 24.9869 39.0537 25.6899 38.245C25.9541 38.792 26.2854 39.2914 26.5959 39.7591C27.2254 40.7081 27.769 41.5275 27.6312 42.4384ZM49 47.9944H1.99996V46.164H7.56703C8.11936 46.164 8.567 45.7163 8.567 45.164C8.567 44.6118 8.11926 44.164 7.56703 44.164H1.99996V20.5703H14.2799C12.6333 21.2947 11.138 22.1786 9.85485 23.199C6.71895 25.693 4.99192 28.8868 4.99192 32.1924C4.99192 35.974 7.17815 39.5003 11.1479 42.1216C14.9893 44.6581 20.0786 46.0572 25.4782 46.0612C25.4784 46.0612 25.4787 46.0612 25.4789 46.0612H25.5034C25.5041 46.0612 25.5049 46.0612 25.5056 46.0612C30.9078 46.0602 36 44.663 39.8447 42.1266C43.8191 39.5048 46.0079 35.9768 46.0079 32.1923C46.0079 28.8868 44.2808 25.6929 41.1448 23.199C39.8618 22.1786 38.3664 21.2947 36.7198 20.5703H48.9998V47.9944H49Z" fill="#F3652E"/>
<path d="M33.4091 6.44251C32.9183 5.90004 32.5941 5.54174 32.5941 4.74038C32.5941 3.93873 32.9184 3.58033 33.4093 3.03776C33.8097 2.5953 34.2635 2.09376 34.5289 1.32757C34.7097 0.805714 34.4331 0.236048 33.9112 0.0553563C33.39 -0.125435 32.8199 0.15118 32.639 0.672934C32.5071 1.05394 32.2507 1.33713 31.9263 1.69572C31.3327 2.35165 30.594 3.16805 30.594 4.74018C30.594 6.31192 31.3326 7.12822 31.9259 7.78405C32.4167 8.32652 32.7409 8.68482 32.7409 9.48617C32.7409 10.2871 32.4166 10.6455 31.9258 11.1882C31.4928 11.6667 30.9538 12.2624 30.7167 13.1986C30.5812 13.734 30.9051 14.2779 31.4404 14.4136C31.5228 14.4346 31.6054 14.4445 31.6867 14.4445C32.1337 14.4445 32.5407 14.1428 32.6554 13.6899C32.7706 13.2357 33.0524 12.9243 33.409 12.53C34.0026 11.8741 34.7411 11.0577 34.7411 9.48637C34.741 7.91474 34.0024 7.09844 33.4091 6.44251Z" fill="#F3652E"/>
<path d="M26.241 6.44252C25.7502 5.90015 25.426 5.54176 25.426 4.7404C25.426 3.93904 25.7503 3.58084 26.2412 3.03827C26.6419 2.59561 27.0961 2.09378 27.3611 1.32698C27.5416 0.805031 27.2647 0.235564 26.7426 0.0551712C26.2214 -0.125321 25.6513 0.151593 25.4708 0.673546C25.3392 1.05445 25.0828 1.33764 24.7583 1.69614C24.1646 2.35206 23.4259 3.16836 23.4259 4.7402C23.4259 6.31193 24.1645 7.12823 24.7579 7.78406C25.2487 8.32644 25.5729 8.68483 25.5729 9.48619C25.5729 10.2871 25.2486 10.6455 24.7577 11.1882C24.3248 11.6667 23.7858 12.2624 23.5487 13.1986C23.4131 13.734 23.737 14.2779 24.2724 14.4137C24.3548 14.4345 24.4374 14.4445 24.5187 14.4445C24.9656 14.4445 25.3727 14.1428 25.4874 13.6899C25.6024 13.2357 25.8843 12.9243 26.241 12.5301C26.8346 11.8741 27.5731 11.0578 27.5731 9.48639C27.573 7.91475 26.8344 7.09845 26.241 6.44252Z" fill="#F3652E"/>
<path d="M19.0734 6.44221C18.5824 5.89984 18.258 5.54145 18.258 4.74029C18.258 3.93903 18.5823 3.58054 19.0732 3.03816C19.4739 2.5955 19.9281 2.09367 20.1931 1.32697C20.3736 0.80502 20.0967 0.235554 19.5747 0.055161C19.0528 -0.125331 18.4833 0.151683 18.3029 0.673536C18.1714 1.05444 17.915 1.33763 17.5904 1.69613C16.9969 2.35205 16.2581 3.16835 16.2581 4.74019C16.2581 6.31202 16.997 7.12832 17.5906 7.78425C18.0816 8.32662 18.406 8.68502 18.406 9.48618C18.406 10.2871 18.0817 10.6455 17.5908 11.1882C17.1578 11.6668 16.6188 12.2625 16.3817 13.1986C16.2461 13.734 16.57 14.2779 17.1053 14.4137C17.1878 14.4345 17.2703 14.4445 17.3518 14.4445C17.7986 14.4445 18.2056 14.1428 18.3204 13.6899C18.4355 13.2357 18.7173 12.9243 19.074 12.53C19.6675 11.8741 20.4061 11.0577 20.4061 9.48627C20.406 7.91444 19.6671 7.09814 19.0734 6.44221Z" fill="#F3652E"/>
<path d="M10.7281 44.1639C9.44127 44.1639 9.43908 46.1639 10.7281 46.1639C12.015 46.1639 12.0172 44.1639 10.7281 44.1639Z" fill="#F3652E"/>
</svg>
