<svg width="50" height="60" viewBox="0 0 50 60" fill="none" xmlns="http://www.w3.org/2000/svg">
<path d="M48.9308 18.9937H40.7547V15.3459C40.7547 14.8428 40.3774 14.3396 39.7484 14.3396H36.1006V8.55346H41.3836C43.7736 8.55346 45.6604 6.66667 45.6604 4.27673C45.6604 1.88679 43.7736 0 41.3836 0H22.8931C20.5031 0 18.6164 1.88679 18.6164 4.27673C18.6164 6.66667 20.5031 8.55346 22.8931 8.55346H27.5472V14.3396H24.0252C23.522 14.3396 23.0189 14.717 23.0189 15.3459V18.4906H13.3333H13.0818C11.6981 18.4906 0 18.8679 0 31.9497V45.0314C0 45.5346 0.377359 46.0377 1.00629 46.0377H13.3333C13.8365 46.0377 14.3396 45.6604 14.3396 45.0314V38.7421V37.2327C14.3396 37.2327 14.2138 35.8491 15.2201 34.8428C16.1006 33.9623 17.4843 33.4591 19.3711 33.4591H48.9308C49.434 33.4591 49.9371 33.0818 49.9371 32.4528V20C49.8113 19.4969 49.434 18.9937 48.9308 18.9937ZM22.8931 6.91824C21.5094 6.79245 20.5031 5.78616 20.5031 4.5283C20.5031 3.27044 21.5094 2.13836 22.8931 2.13836H41.5094C42.7673 2.13836 43.8994 3.14465 43.8994 4.5283C43.8994 5.78616 42.8931 6.91824 41.5094 6.91824H35.2201H28.5535H22.8931ZM34.2138 8.67924V14.4654H29.434V8.67924H34.2138ZM12.5786 44.1509H2.13836V39.7484H12.5786V44.1509ZM48.1761 31.4465H47.9245H19.4969C16.9811 31.4465 15.0943 32.0755 13.9623 33.4591C12.4528 35.0943 12.5786 37.2327 12.5786 37.2327V37.7358H2.13836V31.9497C2.13836 20.8805 11.4465 20.3774 13.3333 20.3774H24.1509C24.6541 20.3774 25.1572 20 25.1572 19.3711V16.3522H28.6792H35.3459H38.9937V20C38.9937 20.5031 39.3711 21.0063 40 21.0063H48.1761V31.4465Z" fill="#F3652E"/>
<path d="M7.92463 48.4277C7.54728 48.0503 7.04413 48.0503 6.66677 48.4277C6.16363 48.805 2.26425 52.7044 3.01897 56.2264C3.39633 57.9874 4.65419 59.2453 7.04413 60C7.16992 60 7.2957 60 7.42149 60C7.54727 60 7.67306 60 7.79885 60C10.063 59.1195 11.4466 57.8616 11.824 56.1006C12.3272 52.5786 8.05042 48.4277 7.92463 48.4277ZM9.81143 55.849C9.55985 56.8553 8.80514 57.6101 7.2957 58.1132C5.91205 57.4843 5.03155 56.7295 4.77998 55.849C4.40262 54.088 6.03784 51.6981 7.2957 50.4402C8.42778 51.8239 10.1888 54.088 9.81143 55.849Z" fill="#F3652E"/>
</svg>
