<svg width="131" height="131" fill="none" xmlns="http://www.w3.org/2000/svg"><circle cx="65.5" cy="65.5" r="65.5" fill="url(#paint0_linear)"/><path d="M89.93 31.994h-8.175v-3.648c0-.503-.378-1.006-1.007-1.006h-3.647v-5.787h5.283a4.241 4.241 0 004.276-4.276A4.241 4.241 0 0082.384 13h-18.49a4.241 4.241 0 00-4.278 4.277 4.241 4.241 0 004.277 4.276h4.654v5.787h-3.522c-.503 0-1.006.377-1.006 1.006v3.145h-9.937C52.698 31.49 41 31.868 41 44.95v13.08c0 .504.377 1.007 1.006 1.007h12.327c.504 0 1.007-.378 1.007-1.007v-7.798s-.126-1.383.88-2.39c.88-.88 2.264-1.383 4.151-1.383h29.56c.503 0 1.006-.377 1.006-1.006V33c-.126-.503-.503-1.006-1.006-1.006zM63.894 19.918c-1.384-.125-2.39-1.132-2.39-2.39 0-1.258 1.006-2.39 2.39-2.39H82.51c1.258 0 2.39 1.007 2.39 2.39 0 1.258-1.006 2.39-2.39 2.39H63.894zm11.32 1.761v5.786h-4.779V21.68h4.78zM53.58 57.151H43.14v-4.403h10.44v4.403zm35.597-12.705h-28.68c-2.516 0-4.403.63-5.535 2.013-1.51 1.635-1.383 3.774-1.383 3.774v.503h-10.44V44.95c0-11.07 9.307-11.573 11.194-11.573h10.818c.503 0 1.006-.377 1.006-1.006v-3.019h13.837V33c0 .503.377 1.006 1.006 1.006h8.176v10.44zM48.925 61.428c-.378-.378-.88-.378-1.258 0-.503.377-4.403 4.276-3.648 7.798.377 1.761 1.635 3.02 4.025 3.774h.755c2.264-.88 3.648-2.138 4.025-3.9.503-3.521-3.774-7.672-3.9-7.672zm1.886 7.42c-.251 1.007-1.006 1.762-2.515 2.265-1.384-.629-2.264-1.384-2.516-2.264-.377-1.761 1.258-4.151 2.516-5.409 1.132 1.384 2.893 3.648 2.515 5.409z" fill="#fff" stroke="#fff"/><path d="M20.195 90.464V92h-4.48v-1.536h1.488v-8H15.89v-1.536h2.944v9.536h1.36zm.916-6.656c0-.885.245-1.605.736-2.16.501-.565 1.152-.848 1.952-.848s1.445.283 1.936.848c.501.555.752 1.275.752 2.16v5.312c0 .885-.251 1.61-.752 2.176-.491.555-1.136.832-1.936.832s-1.451-.277-1.952-.832c-.491-.565-.736-1.29-.736-2.176v-5.312zm1.632 5.264c0 .48.09.853.272 1.12.192.267.453.4.784.4.33 0 .586-.133.768-.4.192-.267.288-.64.288-1.12v-5.216c0-.48-.096-.853-.288-1.12a.875.875 0 00-.768-.4.915.915 0 00-.784.4c-.182.267-.272.64-.272 1.12v5.216zm5.18-5.264c0-.885.246-1.605.736-2.16.502-.565 1.152-.848 1.952-.848s1.445.283 1.936.848c.502.555.752 1.275.752 2.16v5.312c0 .885-.25 1.61-.752 2.176-.49.555-1.136.832-1.936.832s-1.45-.277-1.952-.832c-.49-.565-.736-1.29-.736-2.176v-5.312zm1.632 5.264c0 .48.09.853.272 1.12.192.267.453.4.784.4.33 0 .587-.133.768-.4.192-.267.288-.64.288-1.12v-5.216c0-.48-.096-.853-.288-1.12a.875.875 0 00-.768-.4.915.915 0 00-.784.4c-.181.267-.272.64-.272 1.12v5.216zm4.877-6.08c0-.65.186-1.179.56-1.584.373-.405.864-.608 1.472-.608.597 0 1.082.203 1.456.608.384.405.576.933.576 1.584v.736c0 .65-.192 1.179-.576 1.584-.374.405-.859.608-1.456.608-.608 0-1.099-.203-1.472-.608-.374-.405-.56-.933-.56-1.584v-.736zm6.912-2.064h1.472L36.976 92h-1.472l5.84-11.072zm-5.632 2.752c0 .363.058.63.176.8.128.17.32.256.576.256.501 0 .752-.352.752-1.056v-.64c0-.704-.251-1.056-.752-1.056-.256 0-.448.085-.576.256-.118.17-.176.437-.176.8v.64zm4.112 5.52c0-.65.186-1.179.56-1.584.373-.405.864-.608 1.472-.608.597 0 1.082.203 1.456.608.384.405.576.933.576 1.584v.736c0 .65-.192 1.179-.576 1.584-.374.405-.859.608-1.456.608-.608 0-1.099-.203-1.472-.608-.374-.405-.56-.933-.56-1.584V89.2zm1.28.688c0 .363.058.63.176.8.128.17.32.256.576.256.501 0 .752-.352.752-1.056v-.64c0-.704-.251-1.056-.752-1.056-.256 0-.448.085-.576.256-.118.17-.176.437-.176.8v.64zm10.4-4.896h-2.336V92h-1.632v-8.544h3.968v1.536zm3.097-1.664c.448 0 .848.112 1.2.336.363.213.645.523.848.928.213.395.32.859.32 1.392V92h-1.168l-.224-.608h-.064c-.363.49-.843.736-1.44.736-.576 0-1.056-.224-1.44-.672-.373-.459-.56-1.056-.56-1.792v-.192c0-.779.235-1.408.704-1.888.47-.49 1.067-.736 1.792-.736h.768v-.816c0-.384-.07-.672-.208-.864a.595.595 0 00-.528-.304c-.224 0-.405.101-.544.304-.128.192-.192.48-.192.864v.176h-1.632v-.224c0-.533.101-.997.304-1.392.213-.405.501-.715.864-.928a2.24 2.24 0 011.2-.336zm-.144 7.264a.742.742 0 00.592-.288c.16-.203.256-.464.288-.784v-1.136h-.768a.79.79 0 00-.64.288c-.15.181-.224.448-.224.8v.048c0 .341.064.608.192.8a.669.669 0 00.56.272zm3.954-7.136h1.632v7.008h1.168v-7.008h1.632v7.008h1.168v-7.008h1.632V92H58.41v-8.544zm8.745 2.528c0-.79.23-1.43.688-1.92.47-.49 1.061-.736 1.776-.736.715 0 1.301.245 1.76.736.47.49.704 1.13.704 1.92v2.336h-3.296v1.104c0 .384.075.677.224.88.15.192.347.288.592.288a.713.713 0 00.592-.288c.15-.203.224-.496.224-.88v-.256h1.632v.304c0 .523-.107.987-.32 1.392-.213.405-.507.72-.88.944a2.47 2.47 0 01-1.248.32 2.47 2.47 0 01-1.248-.32 2.352 2.352 0 01-.88-.944 2.949 2.949 0 01-.32-1.392v-3.488zm3.296.8v-.752c0-.384-.075-.672-.224-.864a.715.715 0 00-.608-.304.715.715 0 00-.608.304c-.15.192-.224.48-.224.864v.752h1.664zm3.084-3.328h1.632v3.328h1.6v-3.328H78.4V92h-1.632v-3.68h-1.6V92h-1.632v-8.544zm11.57 0V92h-1.632v-4.656L81.618 92H80.13v-8.544h1.632v4.688l1.856-4.688h1.488zm1.519 2.528c0-.79.23-1.43.688-1.92.47-.49 1.061-.736 1.776-.736.714 0 1.301.245 1.76.736.47.49.704 1.13.704 1.92v2.336h-3.296v1.104c0 .384.074.677.224.88.15.192.346.288.592.288a.713.713 0 00.592-.288c.15-.203.224-.496.224-.88v-.256h1.632v.304c0 .523-.107.987-.32 1.392a2.36 2.36 0 01-.88.944c-.374.213-.79.32-1.248.32a2.47 2.47 0 01-1.248-.32 2.35 2.35 0 01-.88-.944c-.214-.405-.32-.87-.32-1.392v-3.488zm3.296.8v-.752c0-.384-.075-.672-.224-.864a.716.716 0 00-.608-.304.715.715 0 00-.608.304c-.15.192-.224.48-.224.864v.752h1.664zm10.466-3.328V92h-1.632v-4.656L96.899 92H95.41v-8.544h1.632v4.688l1.856-4.688h1.488zm4.751 2.576c0-.384-.075-.672-.224-.864a.646.646 0 00-.56-.304.7.7 0 00-.592.304c-.149.192-.224.48-.224.864v3.392c0 .384.075.677.224.88a.713.713 0 00.592.288.713.713 0 00.592-.288c.149-.203.224-.496.224-.88v-.256h1.632v.304c0 .523-.107.987-.32 1.392-.213.405-.507.72-.88.944-.373.213-.789.32-1.248.32-.459 0-.875-.107-1.248-.32a2.352 2.352 0 01-.88-.944 2.948 2.948 0 01-.32-1.392v-3.488c0-.523.107-.987.32-1.392.213-.405.507-.715.88-.928a2.377 2.377 0 011.248-.336c.459 0 .869.112 1.232.336.373.213.661.523.864.928.213.405.32.87.32 1.392v.224h-1.632v-.176zm4.879 2.32h-.24V92h-1.632v-8.544h1.632v3.36h.272l1.184-3.36h1.776l-1.76 4.096 2 4.448h-1.84l-1.392-3.648zm7.056-5.024c.598 0 1.088.23 1.472.688.384.459.576 1.061.576 1.808v3.808c0 .747-.192 1.35-.576 1.808-.384.459-.88.688-1.488.688-.501 0-.928-.176-1.28-.528v3.12h-1.632V83.456h1.168l.224.56h.064a1.835 1.835 0 011.472-.688zm.416 2.656c0-.373-.069-.65-.208-.832a.67.67 0 00-.576-.288.821.821 0 00-.64.288c-.16.181-.256.427-.288.736v3.632c.032.32.128.581.288.784.16.192.374.288.64.288.246 0 .438-.09.576-.272.139-.192.208-.475.208-.848v-3.488zM43.122 99.456h4.816V108h-1.632v-7.008h-1.552V108h-1.632v-8.544zM54.325 108h-1.632v-7.008H51.62c-.15 2.517-.283 4.149-.4 4.896-.118.725-.358 1.259-.72 1.6-.363.341-.902.512-1.616.512v-1.536c.266 0 .464-.064.592-.192.128-.128.218-.347.272-.656.085-.448.176-1.317.272-2.608a49.34 49.34 0 00.176-3.552h4.128V108zm3.846-8.672c.448 0 .848.112 1.2.336.363.213.646.523.848.928.214.395.32.859.32 1.392V108h-1.168l-.224-.608h-.064c-.362.491-.842.736-1.44.736-.576 0-1.056-.224-1.44-.672-.373-.459-.56-1.056-.56-1.792v-.192c0-.779.235-1.408.704-1.888.47-.491 1.067-.736 1.792-.736h.768v-.816c0-.384-.069-.672-.208-.864a.595.595 0 00-.528-.304c-.224 0-.405.101-.544.304-.128.192-.192.48-.192.864v.176h-1.632v-.224c0-.533.102-.997.304-1.392.214-.405.502-.715.864-.928a2.24 2.24 0 011.2-.336zm-.144 7.264a.742.742 0 00.592-.288c.16-.203.256-.464.288-.784v-1.136h-.768a.79.79 0 00-.64.288c-.149.181-.224.448-.224.8v.048c0 .341.064.608.192.8a.67.67 0 00.56.272zm10.386-7.136V108h-1.632v-4.656l-1.296 3.392h-.576l-1.296-3.392V108h-1.632v-8.544h1.552l1.664 4.464 1.664-4.464h1.552zm1.516 2.528c0-.789.23-1.429.688-1.92.47-.49 1.062-.736 1.776-.736.715 0 1.302.245 1.76.736.47.491.704 1.131.704 1.92v2.336h-3.296v1.104c0 .384.075.677.224.88.15.192.347.288.592.288a.713.713 0 00.592-.288c.15-.203.224-.496.224-.88v-.256h1.632v.304c0 .523-.106.987-.32 1.392-.213.405-.506.72-.88.944-.373.213-.789.32-1.248.32-.458 0-.874-.107-1.248-.32a2.354 2.354 0 01-.88-.944c-.213-.405-.32-.869-.32-1.392v-3.488zm3.296.8v-.752c0-.384-.074-.672-.224-.864a.715.715 0 00-.608-.304.715.715 0 00-.608.304c-.149.192-.224.48-.224.864v.752h1.664zm3.084-3.328h1.632v3.328h1.6v-3.328h1.632V108h-1.632v-3.68h-1.6V108H76.31v-8.544zm11.57 0V108h-1.632v-4.656L84.391 108h-1.488v-8.544h1.632v4.688l1.856-4.688h1.488z" fill="#fff"/><defs><linearGradient id="paint0_linear" x1="65.5" y1="0" x2="65.5" y2="131" gradientUnits="userSpaceOnUse"><stop stop-color="#FC8C34"/><stop offset="1" stop-color="#F2622D"/></linearGradient></defs></svg>