<svg width="90" height="90" fill="none" xmlns="http://www.w3.org/2000/svg"><circle cx="45" cy="45" r="45" fill="url(#paint0_linear)"/><path d="M59.973 19.697h-5.618V17.19a.682.682 0 00-.691-.692h-2.506v-3.975h3.63a2.914 2.914 0 002.938-2.938 2.914 2.914 0 00-2.938-2.939H42.084a2.914 2.914 0 00-2.938 2.939 2.914 2.914 0 002.938 2.938h3.197v3.975h-2.42a.682.682 0 00-.69.692v2.16h-6.828c-.95 0-8.987.26-8.987 9.247v8.987c0 .346.26.691.691.691h8.47a.68.68 0 00.69-.69v-5.359s-.086-.95.605-1.642c.605-.605 1.556-.95 2.852-.95h20.309c.345 0 .69-.26.69-.692v-8.555c-.085-.346-.345-.691-.69-.691zM42.084 11.4c-.95-.086-1.642-.777-1.642-1.641a1.64 1.64 0 011.642-1.642h12.79a1.64 1.64 0 011.642 1.642 1.64 1.64 0 01-1.642 1.641h-12.79zm7.778 1.21v3.976h-3.284V12.61h3.284zM34.998 36.98h-7.173v-3.024h7.173v3.024zm24.456-8.728H39.751c-1.729 0-3.025.432-3.803 1.383-1.037 1.123-.95 2.592-.95 2.592v.346h-7.173v-3.975c0-7.605 6.395-7.95 7.691-7.95h7.432c.346 0 .692-.26.692-.692v-2.074h9.505v2.506c0 .346.26.691.692.691h5.617v7.173zM31.8 39.918c-.26-.26-.605-.26-.864 0-.346.26-3.025 2.938-2.506 5.358.26 1.21 1.123 2.074 2.765 2.592h.519c1.555-.604 2.506-1.469 2.765-2.678.346-2.42-2.592-5.272-2.679-5.272zm1.296 5.099c-.172.691-.69 1.21-1.728 1.555-.95-.432-1.555-.95-1.728-1.555-.26-1.21.864-2.852 1.728-3.716.778.95 1.988 2.506 1.729 3.716zm-2.169 4.693l-1.98.755v.684l1.788-.672v6.708h-1.788v.684h4.091v-.684h-1.595V49.71h-.517zm3.047 4.08c0 2.423 1.128 4.211 3.564 4.211s3.564-1.788 3.564-4.212c0-2.436-1.128-4.212-3.564-4.212s-3.564 1.776-3.564 4.212zm6.408 0c0 2.16-.9 3.54-2.844 3.54s-2.844-1.38-2.844-3.54.9-3.54 2.844-3.54 2.844 1.38 2.844 3.54zm2.041 0c0 2.423 1.128 4.211 3.564 4.211s3.564-1.788 3.564-4.212c0-2.436-1.128-4.212-3.564-4.212s-3.564 1.776-3.564 4.212zm6.408 0c0 2.16-.9 3.54-2.844 3.54s-2.844-1.38-2.844-3.54.9-3.54 2.844-3.54 2.844 1.38 2.844 3.54zm4.586 4.8l4.908-9.84h-.684l-4.908 9.84h.684zm.972-7.44c0-1.177-.888-1.813-1.872-1.813-.996 0-1.896.636-1.896 1.812 0 1.176.9 1.812 1.896 1.812.984 0 1.872-.636 1.872-1.812zm-3.12 0c0-.72.492-1.213 1.248-1.213.732 0 1.224.492 1.224 1.212s-.492 1.212-1.224 1.212c-.756 0-1.248-.492-1.248-1.212zm9.156 5.04c0-1.177-.888-1.813-1.872-1.813-.996 0-1.896.636-1.896 1.812 0 1.176.9 1.812 1.896 1.812.984 0 1.872-.636 1.872-1.812zm-3.12 0c0-.72.492-1.213 1.248-1.213.732 0 1.224.492 1.224 1.212s-.492 1.212-1.224 1.212c-.756 0-1.248-.492-1.248-1.212zM7.038 67.87v-5.125h3.456v-.636h-4.14v5.76h.684zm9.043-1.045v-2.46c0-1.536-.912-2.388-2.436-2.388-.936 0-1.692.204-2.136.36v.672a5.3 5.3 0 012.064-.408c1.188 0 1.836.672 1.836 1.68v.384a6.882 6.882 0 00-1.812-.252c-1.224 0-2.544.456-2.544 1.884 0 1.176.996 1.704 2.004 1.704.96 0 1.788-.348 2.364-.972.06.648.504.888.996.888.216 0 .432-.048.624-.12v-.552a1.387 1.387 0 01-.444.084c-.276 0-.516-.12-.516-.504zm-4.332-.564c0-.96.996-1.272 1.944-1.272.576 0 1.212.108 1.716.24v1.056a2.703 2.703 0 01-2.22 1.128c-.732 0-1.44-.36-1.44-1.152zm14.243 1.608v-5.76h-.684v5.124h-2.916V62.11h-.684v5.124h-2.916V62.11h-.684v5.76h7.884zm1.481-2.88c0 2.076 1.488 3.012 3.168 3.012.732 0 1.464-.144 1.98-.42v-.672c-.492.288-1.188.468-1.884.468-1.284 0-2.496-.612-2.58-2.076h4.788c.3-1.512-.444-3.324-2.628-3.324-1.392 0-2.844 1.032-2.844 3.012zm4.872-.288h-4.188c.06-1.368 1.08-2.1 2.208-2.1 1.62 0 2.076 1.284 1.98 2.1zm2.76 3.168v-2.568h3.743v2.568h.672v-5.76h-.672v2.568h-3.744V62.11h-.684v5.76h.684zm6.876 0l3.912-4.668v4.668h.672v-5.76h-.588l-3.9 4.668V62.11h-.684v5.76h.588zm6.059-2.88c0 2.076 1.488 3.012 3.168 3.012.732 0 1.464-.144 1.98-.42v-.672c-.492.288-1.188.468-1.884.468-1.284 0-2.496-.612-2.58-2.076h4.788c.3-1.512-.444-3.324-2.628-3.324-1.392 0-2.844 1.032-2.844 3.012zm4.872-.288h-4.188c.06-1.368 1.08-2.1 2.208-2.1 1.62 0 2.076 1.284 1.98 2.1zm5.745 3.168l3.912-4.668v4.668h.671v-5.76h-.587l-3.9 4.668V62.11h-.684v5.76h.587zm6.059-2.844c0 2.04 1.535 2.976 3.024 2.976.696 0 1.332-.132 1.884-.408v-.684c-.504.3-1.152.468-1.788.468-1.236 0-2.436-.744-2.436-2.364 0-1.704 1.271-2.412 2.507-2.412.589 0 1.213.168 1.657.504v-.66c-.492-.336-1.128-.468-1.74-.468-1.5 0-3.108.924-3.108 3.048zm7.056 2.844v-2.628h1.296l2.34 2.628h.804l-2.568-2.928 2.268-2.832h-.792l-2.016 2.496h-1.332V62.11h-.684v5.76h.684zm6.069-4.572V62.11h-.612v8.4h.684v-3.756c.432.66 1.236 1.248 2.388 1.248 1.644 0 2.868-1.236 2.868-3.012s-1.224-3.012-2.868-3.012c-1.152 0-1.956.588-2.46 1.32zm4.644 1.692c0 1.488-.996 2.388-2.268 2.388-1.116 0-1.98-.744-2.316-1.608v-1.56c.336-.864 1.2-1.608 2.316-1.608 1.272 0 2.268.912 2.268 2.388zm-61.63 12.88v-5.124h3.743v5.124h.672v-5.76h-5.1v5.76h.684zm8.112-5.124h2.712v5.124h.672v-5.76h-4.056c-.108 3.288-.492 5.256-1.548 5.256-.132 0-.264-.012-.408-.072v.552c.228.084.42.108.612.108 1.404 0 1.848-2.04 2.016-5.208zm9.778 4.08v-2.46c0-1.536-.912-2.388-2.436-2.388-.936 0-1.692.204-2.136.36v.672a5.3 5.3 0 012.064-.408c1.188 0 1.836.672 1.836 1.68v.384a6.882 6.882 0 00-1.812-.252c-1.224 0-2.544.456-2.544 1.884 0 1.176.996 1.704 2.004 1.704.96 0 1.788-.348 2.364-.972.06.648.504.888.996.888.216 0 .432-.048.624-.12v-.552a1.387 1.387 0 01-.444.084c-.276 0-.516-.12-.516-.504zm-4.332-.564c0-.96.996-1.272 1.944-1.272.576 0 1.212.108 1.716.24v1.056a2.703 2.703 0 01-2.22 1.128c-.732 0-1.44-.36-1.44-1.152zm7.007 1.608v-4.752l2.172 3.156h.504l2.16-3.156v4.752h.648v-5.76h-.732l-2.328 3.408-2.328-3.408h-.744v5.76h.648zm6.96-2.88c0 2.076 1.487 3.012 3.167 3.012.733 0 1.465-.144 1.98-.42v-.672c-.492.288-1.188.468-1.883.468-1.285 0-2.496-.612-2.58-2.076h4.788c.3-1.512-.444-3.324-2.628-3.324-1.392 0-2.844 1.032-2.844 3.012zm4.871-.288h-4.188c.06-1.368 1.08-2.1 2.209-2.1 1.62 0 2.075 1.284 1.98 2.1zm2.76 3.168v-2.568h3.743v2.568h.672v-5.76h-.672v2.568H56.01V72.11h-.684v5.76h.684zm8.928 0c1.356 0 2.196-.78 2.196-1.836 0-1.044-.84-1.824-2.196-1.824h-1.956v-2.1h-.684v5.76h2.64zm-1.968-3.048h1.872c.972 0 1.596.444 1.596 1.212s-.612 1.224-1.596 1.224h-1.872v-2.436zm5.988 3.048v-5.76h-.684v5.76h.684z" fill="#fff"/><defs><linearGradient id="paint0_linear" x1="45" y1="0" x2="45" y2="90" gradientUnits="userSpaceOnUse"><stop stop-color="#FC8C34"/><stop offset="1" stop-color="#F2622D"/></linearGradient></defs></svg>