<svg width="90" height="90" viewBox="0 0 90 90" fill="none" xmlns="http://www.w3.org/2000/svg">
<circle cx="45" cy="45" r="45" fill="url(#paint0_linear)"/>
<path d="M59.9726 19.6966H54.3554V17.1905C54.3554 16.8448 54.0961 16.4991 53.664 16.4991H51.1579V12.5239H54.7875C56.4294 12.5239 57.7257 11.2276 57.7257 9.58567C57.7257 7.94373 56.4294 6.64746 54.7875 6.64746H42.084C40.4421 6.64746 39.1458 7.94373 39.1458 9.58567C39.1458 11.2276 40.4421 12.5239 42.084 12.5239H45.2815V16.4991H42.8618C42.5161 16.4991 42.1704 16.7584 42.1704 17.1905V19.3509H35.5163H35.3434C34.3928 19.3509 26.356 19.6102 26.356 28.5976V37.5851C26.356 37.9308 26.6152 38.2764 27.0473 38.2764H35.5163C35.8619 38.2764 36.2076 38.0172 36.2076 37.5851V33.2642V32.2272C36.2076 32.2272 36.1212 31.2766 36.8125 30.5852C37.4175 29.9803 38.3681 29.6346 39.6643 29.6346H59.9726C60.3182 29.6346 60.6639 29.3754 60.6639 28.9433V20.3879C60.5775 20.0422 60.3182 19.6966 59.9726 19.6966ZM42.084 11.4004C41.1334 11.314 40.4421 10.6227 40.4421 9.75851C40.4421 8.89433 41.1334 8.11657 42.084 8.11657H54.8739C55.7381 8.11657 56.5158 8.80791 56.5158 9.75851C56.5158 10.6227 55.8245 11.4004 54.8739 11.4004H50.553H45.9728H42.084ZM49.8616 12.6103V16.5855H46.5778V12.6103H49.8616ZM34.9978 36.9802H27.8251V33.9555H34.9978V36.9802ZM59.454 28.252H59.2812H39.7507C38.0224 28.252 36.7261 28.684 35.9484 29.6346C34.9113 30.7581 34.9978 32.2272 34.9978 32.2272V32.5729H27.8251V28.5976C27.8251 20.9928 34.22 20.6472 35.5163 20.6472H42.9482C43.2939 20.6472 43.6396 20.3879 43.6396 19.9558V17.8818H46.0593H50.6394H53.1455V20.3879C53.1455 20.7336 53.4048 21.0793 53.8369 21.0793H59.454V28.252Z" fill="white"/>
<path d="M31.8002 39.9181C31.5409 39.6588 31.1953 39.6588 30.936 39.9181C30.5903 40.1773 27.9114 42.8563 28.4299 45.276C28.6892 46.4858 29.5533 47.35 31.1953 47.8685C31.2817 47.8685 31.3681 47.8685 31.4545 47.8685C31.5409 47.8685 31.6274 47.8685 31.7138 47.8685C33.2693 47.2636 34.2199 46.3994 34.4792 45.1896C34.8248 42.7699 31.8866 39.9181 31.8002 39.9181ZM33.0965 45.0167C32.9236 45.7081 32.4051 46.2266 31.3681 46.5722C30.4175 46.1402 29.8126 45.6217 29.6397 45.0167C29.3805 43.8069 30.5039 42.1649 31.3681 41.3008C32.1459 42.2514 33.3557 43.8069 33.0965 45.0167Z" fill="white"/>
<path d="M30.9265 49.7091L28.9465 50.4651V51.1491L30.7345 50.4771V57.1851H28.9465V57.8691H33.0385V57.1851H31.4425V49.7091H30.9265ZM33.9741 53.7891C33.9741 56.2131 35.1021 58.0011 37.5381 58.0011C39.9741 58.0011 41.1021 56.2131 41.1021 53.7891C41.1021 51.3531 39.9741 49.5771 37.5381 49.5771C35.1021 49.5771 33.9741 51.3531 33.9741 53.7891ZM40.3821 53.7891C40.3821 55.9491 39.4821 57.3291 37.5381 57.3291C35.5941 57.3291 34.6941 55.9491 34.6941 53.7891C34.6941 51.6291 35.5941 50.2491 37.5381 50.2491C39.4821 50.2491 40.3821 51.6291 40.3821 53.7891ZM42.4233 53.7891C42.4233 56.2131 43.5513 58.0011 45.9873 58.0011C48.4233 58.0011 49.5513 56.2131 49.5513 53.7891C49.5513 51.3531 48.4233 49.5771 45.9873 49.5771C43.5513 49.5771 42.4233 51.3531 42.4233 53.7891ZM48.8313 53.7891C48.8313 55.9491 47.9313 57.3291 45.9873 57.3291C44.0433 57.3291 43.1433 55.9491 43.1433 53.7891C43.1433 51.6291 44.0433 50.2491 45.9873 50.2491C47.9313 50.2491 48.8313 51.6291 48.8313 53.7891ZM53.4166 58.5891L58.3246 48.7491H57.6406L52.7326 58.5891H53.4166ZM54.3886 51.1491C54.3886 49.9731 53.5006 49.3371 52.5166 49.3371C51.5206 49.3371 50.6206 49.9731 50.6206 51.1491C50.6206 52.3251 51.5206 52.9611 52.5166 52.9611C53.5006 52.9611 54.3886 52.3251 54.3886 51.1491ZM51.2686 51.1491C51.2686 50.4291 51.7606 49.9371 52.5166 49.9371C53.2486 49.9371 53.7406 50.4291 53.7406 51.1491C53.7406 51.8691 53.2486 52.3611 52.5166 52.3611C51.7606 52.3611 51.2686 51.8691 51.2686 51.1491ZM60.4246 56.1891C60.4246 55.0131 59.5366 54.3771 58.5526 54.3771C57.5566 54.3771 56.6566 55.0131 56.6566 56.1891C56.6566 57.3651 57.5566 58.0011 58.5526 58.0011C59.5366 58.0011 60.4246 57.3651 60.4246 56.1891ZM57.3046 56.1891C57.3046 55.4691 57.7966 54.9771 58.5526 54.9771C59.2846 54.9771 59.7766 55.4691 59.7766 56.1891C59.7766 56.9091 59.2846 57.4011 58.5526 57.4011C57.7966 57.4011 57.3046 56.9091 57.3046 56.1891ZM7.03764 67.8691V62.7451H10.4936V62.1091H6.35364V67.8691H7.03764ZM16.0808 66.8251V64.3651C16.0808 62.8291 15.1688 61.9771 13.6448 61.9771C12.7088 61.9771 11.9528 62.1811 11.5088 62.3371V63.0091C11.9888 62.8051 12.6968 62.6011 13.5728 62.6011C14.7608 62.6011 15.4088 63.2731 15.4088 64.2811V64.6651C14.8568 64.5091 14.2088 64.4131 13.5968 64.4131C12.3728 64.4131 11.0528 64.8691 11.0528 66.2971C11.0528 67.4731 12.0488 68.0011 13.0568 68.0011C14.0168 68.0011 14.8448 67.6531 15.4208 67.0291C15.4808 67.6771 15.9248 67.9171 16.4168 67.9171C16.6328 67.9171 16.8488 67.8691 17.0408 67.7971V67.2451C16.8968 67.2931 16.7528 67.3291 16.5968 67.3291C16.3208 67.3291 16.0808 67.2091 16.0808 66.8251ZM11.7488 66.2611C11.7488 65.3011 12.7448 64.9891 13.6928 64.9891C14.2688 64.9891 14.9048 65.0971 15.4088 65.2291V66.2851C14.8928 67.0171 14.0528 67.4131 13.1888 67.4131C12.4568 67.4131 11.7488 67.0531 11.7488 66.2611ZM25.9916 67.8691V62.1091H25.3076V67.2331H22.3916V62.1091H21.7076V67.2331H18.7916V62.1091H18.1076V67.8691H25.9916ZM27.4733 64.9891C27.4733 67.0651 28.9613 68.0011 30.6413 68.0011C31.3733 68.0011 32.1053 67.8571 32.6213 67.5811V66.9091C32.1293 67.1971 31.4333 67.3771 30.7373 67.3771C29.4533 67.3771 28.2413 66.7651 28.1573 65.3011H32.9453C33.2453 63.7891 32.5013 61.9771 30.3173 61.9771C28.9253 61.9771 27.4733 63.0091 27.4733 64.9891ZM32.3453 64.7011H28.1573C28.2173 63.3331 29.2373 62.6011 30.3653 62.6011C31.9853 62.6011 32.4413 63.8851 32.3453 64.7011ZM35.1041 67.8691V65.3011H38.8481V67.8691H39.5201V62.1091H38.8481V64.6771H35.1041V62.1091H34.4201V67.8691H35.1041ZM41.9807 67.8691L45.8927 63.2011V67.8691H46.5647V62.1091H45.9767L42.0767 66.7771V62.1091H41.3927V67.8691H41.9807ZM48.0397 64.9891C48.0397 67.0651 49.5277 68.0011 51.2077 68.0011C51.9397 68.0011 52.6717 67.8571 53.1877 67.5811V66.9091C52.6957 67.1971 51.9997 67.3771 51.3037 67.3771C50.0197 67.3771 48.8077 66.7651 48.7237 65.3011H53.5117C53.8117 63.7891 53.0677 61.9771 50.8837 61.9771C49.4917 61.9771 48.0397 63.0091 48.0397 64.9891ZM52.9117 64.7011H48.7237C48.7837 63.3331 49.8037 62.6011 50.9317 62.6011C52.5517 62.6011 53.0077 63.8851 52.9117 64.7011ZM58.6565 67.8691L62.5685 63.2011V67.8691H63.2405V62.1091H62.6525L58.7525 66.7771V62.1091H58.0685V67.8691H58.6565ZM64.7155 65.0251C64.7155 67.0651 66.2515 68.0011 67.7395 68.0011C68.4355 68.0011 69.0715 67.8691 69.6235 67.5931V66.9091C69.1195 67.2091 68.4715 67.3771 67.8355 67.3771C66.5995 67.3771 65.3995 66.6331 65.3995 65.0131C65.3995 63.3091 66.6715 62.6011 67.9075 62.6011C68.4955 62.6011 69.1195 62.7691 69.5635 63.1051V62.4451C69.0715 62.1091 68.4355 61.9771 67.8235 61.9771C66.3235 61.9771 64.7155 62.9011 64.7155 65.0251ZM71.772 67.8691V65.2411H73.068L75.408 67.8691H76.212L73.644 64.9411L75.912 62.1091H75.12L73.104 64.6051H71.772V62.1091H71.088V67.8691H71.772ZM77.8406 63.2971V62.1091H77.2286V70.5091H77.9126V66.7531C78.3446 67.4131 79.1486 68.0011 80.3006 68.0011C81.9446 68.0011 83.1686 66.7651 83.1686 64.9891C83.1686 63.2131 81.9446 61.9771 80.3006 61.9771C79.1486 61.9771 78.3446 62.5651 77.8406 63.2971ZM82.4846 64.9891C82.4846 66.4771 81.4886 67.3771 80.2166 67.3771C79.1006 67.3771 78.2366 66.6331 77.9006 65.7691V64.2091C78.2366 63.3451 79.1006 62.6011 80.2166 62.6011C81.4886 62.6011 82.4846 63.5131 82.4846 64.9891ZM20.8541 77.8691V72.7451H24.5981V77.8691H25.2701V72.1091H20.1701V77.8691H20.8541ZM28.9667 72.7451H31.6787V77.8691H32.3507V72.1091H28.2947C28.1867 75.3971 27.8027 77.3651 26.7467 77.3651C26.6147 77.3651 26.4827 77.3531 26.3387 77.2931V77.8451C26.5667 77.9291 26.7587 77.9531 26.9507 77.9531C28.3547 77.9531 28.7987 75.9131 28.9667 72.7451ZM38.7448 76.8251V74.3651C38.7448 72.8291 37.8328 71.9771 36.3088 71.9771C35.3728 71.9771 34.6168 72.1811 34.1728 72.3371V73.0091C34.6528 72.8051 35.3608 72.6011 36.2368 72.6011C37.4248 72.6011 38.0728 73.2731 38.0728 74.2811V74.6651C37.5208 74.5091 36.8728 74.4131 36.2608 74.4131C35.0368 74.4131 33.7168 74.8691 33.7168 76.2971C33.7168 77.4731 34.7128 78.0011 35.7208 78.0011C36.6808 78.0011 37.5088 77.6531 38.0848 77.0291C38.1448 77.6771 38.5888 77.9171 39.0808 77.9171C39.2968 77.9171 39.5128 77.8691 39.7048 77.7971V77.2451C39.5608 77.2931 39.4168 77.3291 39.2608 77.3291C38.9848 77.3291 38.7448 77.2091 38.7448 76.8251ZM34.4128 76.2611C34.4128 75.3011 35.4088 74.9891 36.3568 74.9891C36.9328 74.9891 37.5688 75.0971 38.0728 75.2291V76.2851C37.5568 77.0171 36.7168 77.4131 35.8528 77.4131C35.1208 77.4131 34.4128 77.0531 34.4128 76.2611ZM41.4196 77.8691V73.1171L43.5916 76.2731H44.0956L46.2556 73.1171V77.8691H46.9036V72.1091H46.1716L43.8436 75.5171L41.5156 72.1091H40.7716V77.8691H41.4196ZM48.3795 74.9891C48.3795 77.0651 49.8675 78.0011 51.5475 78.0011C52.2795 78.0011 53.0115 77.8571 53.5275 77.5811V76.9091C53.0355 77.1971 52.3395 77.3771 51.6435 77.3771C50.3595 77.3771 49.1475 76.7651 49.0635 75.3011H53.8515C54.1515 73.7891 53.4075 71.9771 51.2235 71.9771C49.8315 71.9771 48.3795 73.0091 48.3795 74.9891ZM53.2515 74.7011H49.0635C49.1235 73.3331 50.1435 72.6011 51.2715 72.6011C52.8915 72.6011 53.3475 73.8851 53.2515 74.7011ZM56.0103 77.8691V75.3011H59.7543V77.8691H60.4263V72.1091H59.7543V74.6771H56.0103V72.1091H55.3263V77.8691H56.0103ZM64.939 77.8691C66.295 77.8691 67.135 77.0891 67.135 76.0331C67.135 74.9891 66.295 74.2091 64.939 74.2091H62.983V72.1091H62.299V77.8691H64.939ZM62.971 74.8211H64.843C65.815 74.8211 66.439 75.2651 66.439 76.0331C66.439 76.8011 65.827 77.2571 64.843 77.2571H62.971V74.8211ZM68.959 77.8691V72.1091H68.275V77.8691H68.959Z" fill="white"/>
<defs>
<linearGradient id="paint0_linear" x1="45" y1="0" x2="45" y2="90" gradientUnits="userSpaceOnUse">
<stop stop-color="#FC8C34"/>
<stop offset="1" stop-color="#F2622D"/>
</linearGradient>
</defs>
</svg>
