<svg width="131" height="131" viewBox="0 0 131 131" fill="none" xmlns="http://www.w3.org/2000/svg">
<circle cx="65.5" cy="65.5" r="65.5" fill="url(#paint0_linear)"/>
<path d="M89.9308 31.9937H81.7547V28.3459C81.7547 27.8428 81.3774 27.3396 80.7484 27.3396H77.1006V21.5535H82.3836C84.7736 21.5535 86.6604 19.6667 86.6604 17.2767C86.6604 14.8868 84.7736 13 82.3836 13H63.8931C61.5031 13 59.6164 14.8868 59.6164 17.2767C59.6164 19.6667 61.5031 21.5535 63.8931 21.5535H68.5472V27.3396H65.0252C64.522 27.3396 64.0189 27.717 64.0189 28.3459V31.4906H54.3333H54.0818C52.6981 31.4906 41 31.8679 41 44.9497V58.0314C41 58.5346 41.3774 59.0377 42.0063 59.0377H54.3333C54.8365 59.0377 55.3396 58.6604 55.3396 58.0314V51.7421V50.2327C55.3396 50.2327 55.2138 48.8491 56.2201 47.8428C57.1006 46.9623 58.4843 46.4591 60.3711 46.4591H89.9308C90.434 46.4591 90.9371 46.0818 90.9371 45.4528V33C90.8113 32.4969 90.434 31.9937 89.9308 31.9937ZM63.8931 19.9182C62.5094 19.7925 61.5031 18.7862 61.5031 17.5283C61.5031 16.2704 62.5094 15.1384 63.8931 15.1384H82.5094C83.7673 15.1384 84.8994 16.1447 84.8994 17.5283C84.8994 18.7862 83.8931 19.9182 82.5094 19.9182H76.2201H69.5535H63.8931ZM75.2138 21.6792V27.4654H70.434V21.6792H75.2138ZM53.5786 57.1509H43.1384V52.7484H53.5786V57.1509ZM89.1761 44.4465H88.9245H60.4969C57.9811 44.4465 56.0943 45.0755 54.9623 46.4591C53.4528 48.0943 53.5786 50.2327 53.5786 50.2327V50.7358H43.1384V44.9497C43.1384 33.8805 52.4465 33.3774 54.3333 33.3774H65.1509C65.6541 33.3774 66.1572 33 66.1572 32.3711V29.3522H69.6792H76.3459H79.9937V33C79.9937 33.5031 80.3711 34.0063 81 34.0063H89.1761V44.4465Z" fill="white" stroke="white"/>
<path d="M48.9246 61.4275C48.5473 61.0502 48.0441 61.0502 47.6668 61.4275C47.1636 61.8049 43.2643 65.7043 44.019 69.2263C44.3963 70.9873 45.6542 72.2451 48.0441 72.9999C48.1699 72.9999 48.2957 72.9999 48.4215 72.9999C48.5473 72.9999 48.6731 72.9999 48.7988 72.9999C51.063 72.1194 52.4466 70.8615 52.824 69.1005C53.3272 65.5785 49.0504 61.4275 48.9246 61.4275ZM50.8114 68.8489C50.5599 69.8552 49.8051 70.6099 48.2957 71.1131C46.9121 70.4841 46.0316 69.7294 45.78 68.8489C45.4026 67.0879 47.0378 64.698 48.2957 63.4401C49.4278 64.8238 51.1888 67.0879 50.8114 68.8489Z" fill="white" stroke="white"/>
<path d="M20.1948 90.464V92H15.7148V90.464H17.2028V82.464H15.8908V80.928H18.8348V90.464H20.1948ZM21.1106 83.808C21.1106 82.9227 21.356 82.2027 21.8466 81.648C22.348 81.0827 22.9986 80.8 23.7986 80.8C24.5986 80.8 25.244 81.0827 25.7346 81.648C26.236 82.2027 26.4866 82.9227 26.4866 83.808V89.12C26.4866 90.0053 26.236 90.7307 25.7346 91.296C25.244 91.8507 24.5986 92.128 23.7986 92.128C22.9986 92.128 22.348 91.8507 21.8466 91.296C21.356 90.7307 21.1106 90.0053 21.1106 89.12V83.808ZM22.7426 89.072C22.7426 89.552 22.8333 89.9253 23.0146 90.192C23.2066 90.4587 23.468 90.592 23.7986 90.592C24.1293 90.592 24.3853 90.4587 24.5666 90.192C24.7586 89.9253 24.8546 89.552 24.8546 89.072V83.856C24.8546 83.376 24.7586 83.0027 24.5666 82.736C24.3853 82.4693 24.1293 82.336 23.7986 82.336C23.468 82.336 23.2066 82.4693 23.0146 82.736C22.8333 83.0027 22.7426 83.376 22.7426 83.856V89.072ZM27.9231 83.808C27.9231 82.9227 28.1685 82.2027 28.6591 81.648C29.1605 81.0827 29.8111 80.8 30.6111 80.8C31.4111 80.8 32.0565 81.0827 32.5471 81.648C33.0485 82.2027 33.2991 82.9227 33.2991 83.808V89.12C33.2991 90.0053 33.0485 90.7307 32.5471 91.296C32.0565 91.8507 31.4111 92.128 30.6111 92.128C29.8111 92.128 29.1605 91.8507 28.6591 91.296C28.1685 90.7307 27.9231 90.0053 27.9231 89.12V83.808ZM29.5551 89.072C29.5551 89.552 29.6458 89.9253 29.8271 90.192C30.0191 90.4587 30.2805 90.592 30.6111 90.592C30.9418 90.592 31.1978 90.4587 31.3791 90.192C31.5711 89.9253 31.6671 89.552 31.6671 89.072V83.856C31.6671 83.376 31.5711 83.0027 31.3791 82.736C31.1978 82.4693 30.9418 82.336 30.6111 82.336C30.2805 82.336 30.0191 82.4693 29.8271 82.736C29.6458 83.0027 29.5551 83.376 29.5551 83.856V89.072ZM34.4316 82.992C34.4316 82.3413 34.6183 81.8133 34.9916 81.408C35.365 81.0027 35.8556 80.8 36.4636 80.8C37.061 80.8 37.5463 81.0027 37.9196 81.408C38.3036 81.8133 38.4956 82.3413 38.4956 82.992V83.728C38.4956 84.3787 38.3036 84.9067 37.9196 85.312C37.5463 85.7173 37.061 85.92 36.4636 85.92C35.8556 85.92 35.365 85.7173 34.9916 85.312C34.6183 84.9067 34.4316 84.3787 34.4316 83.728V82.992ZM41.3436 80.928H42.8156L36.9756 92H35.5036L41.3436 80.928ZM35.7116 83.68C35.7116 84.0427 35.7703 84.3093 35.8876 84.48C36.0156 84.6507 36.2076 84.736 36.4636 84.736C36.965 84.736 37.2156 84.384 37.2156 83.68V83.04C37.2156 82.336 36.965 81.984 36.4636 81.984C36.2076 81.984 36.0156 82.0693 35.8876 82.24C35.7703 82.4107 35.7116 82.6773 35.7116 83.04V83.68ZM39.8236 89.2C39.8236 88.5493 40.0103 88.0213 40.3836 87.616C40.757 87.2107 41.2476 87.008 41.8556 87.008C42.453 87.008 42.9383 87.2107 43.3116 87.616C43.6956 88.0213 43.8876 88.5493 43.8876 89.2V89.936C43.8876 90.5867 43.6956 91.1147 43.3116 91.52C42.9383 91.9253 42.453 92.128 41.8556 92.128C41.2476 92.128 40.757 91.9253 40.3836 91.52C40.0103 91.1147 39.8236 90.5867 39.8236 89.936V89.2ZM41.1036 89.888C41.1036 90.2507 41.1623 90.5173 41.2796 90.688C41.4076 90.8587 41.5996 90.944 41.8556 90.944C42.357 90.944 42.6076 90.592 42.6076 89.888V89.248C42.6076 88.544 42.357 88.192 41.8556 88.192C41.5996 88.192 41.4076 88.2773 41.2796 88.448C41.1623 88.6187 41.1036 88.8853 41.1036 89.248V89.888ZM51.5039 84.992H49.1679V92H47.5359V83.456H51.5039V84.992ZM54.601 83.328C55.049 83.328 55.449 83.44 55.801 83.664C56.1637 83.8773 56.4463 84.1867 56.649 84.592C56.8623 84.9867 56.969 85.4507 56.969 85.984V92H55.801L55.577 91.392H55.513C55.1503 91.8827 54.6703 92.128 54.073 92.128C53.497 92.128 53.017 91.904 52.633 91.456C52.2597 90.9973 52.073 90.4 52.073 89.664V89.472C52.073 88.6933 52.3077 88.064 52.777 87.584C53.2463 87.0933 53.8437 86.848 54.569 86.848H55.337V86.032C55.337 85.648 55.2677 85.36 55.129 85.168C55.001 84.9653 54.825 84.864 54.601 84.864C54.377 84.864 54.1957 84.9653 54.057 85.168C53.929 85.36 53.865 85.648 53.865 86.032V86.208H52.233V85.984C52.233 85.4507 52.3343 84.9867 52.537 84.592C52.7503 84.1867 53.0383 83.8773 53.401 83.664C53.7637 83.44 54.1637 83.328 54.601 83.328ZM54.457 90.592C54.6917 90.592 54.889 90.496 55.049 90.304C55.209 90.1013 55.305 89.84 55.337 89.52V88.384H54.569C54.3023 88.384 54.089 88.48 53.929 88.672C53.7797 88.8533 53.705 89.12 53.705 89.472V89.52C53.705 89.8613 53.769 90.128 53.897 90.32C54.0357 90.5013 54.2223 90.592 54.457 90.592ZM58.4109 83.456H60.0429V90.464H61.2109V83.456H62.8429V90.464H64.0109V83.456H65.6429V92H58.4109V83.456ZM67.156 85.984C67.156 85.1947 67.3853 84.5547 67.844 84.064C68.3133 83.5733 68.9053 83.328 69.62 83.328C70.3347 83.328 70.9213 83.5733 71.38 84.064C71.8493 84.5547 72.084 85.1947 72.084 85.984V88.32H68.788V89.424C68.788 89.808 68.8627 90.1013 69.012 90.304C69.1613 90.496 69.3587 90.592 69.604 90.592C69.8493 90.592 70.0467 90.496 70.196 90.304C70.3453 90.1013 70.42 89.808 70.42 89.424V89.168H72.052V89.472C72.052 89.9947 71.9453 90.4587 71.732 90.864C71.5187 91.2693 71.2253 91.584 70.852 91.808C70.4787 92.0213 70.0627 92.128 69.604 92.128C69.1453 92.128 68.7293 92.0213 68.356 91.808C67.9827 91.584 67.6893 91.2693 67.476 90.864C67.2627 90.4587 67.156 89.9947 67.156 89.472V85.984ZM70.452 86.784V86.032C70.452 85.648 70.3773 85.36 70.228 85.168C70.0787 84.9653 69.876 84.864 69.62 84.864C69.364 84.864 69.1613 84.9653 69.012 85.168C68.8627 85.36 68.788 85.648 68.788 86.032V86.784H70.452ZM73.5359 83.456H75.1679V86.784H76.7679V83.456H78.3999V92H76.7679V88.32H75.1679V92H73.5359V83.456ZM85.1056 83.456V92H83.4736V87.344L81.6176 92H80.1296V83.456H81.7616V88.144L83.6176 83.456H85.1056ZM86.6248 85.984C86.6248 85.1947 86.8541 84.5547 87.3128 84.064C87.7821 83.5733 88.3741 83.328 89.0888 83.328C89.8034 83.328 90.3901 83.5733 90.8488 84.064C91.3181 84.5547 91.5528 85.1947 91.5528 85.984V88.32H88.2568V89.424C88.2568 89.808 88.3314 90.1013 88.4808 90.304C88.6301 90.496 88.8274 90.592 89.0728 90.592C89.3181 90.592 89.5154 90.496 89.6648 90.304C89.8141 90.1013 89.8888 89.808 89.8888 89.424V89.168H91.5208V89.472C91.5208 89.9947 91.4141 90.4587 91.2008 90.864C90.9874 91.2693 90.6941 91.584 90.3208 91.808C89.9474 92.0213 89.5314 92.128 89.0728 92.128C88.6141 92.128 88.1981 92.0213 87.8248 91.808C87.4514 91.584 87.1581 91.2693 86.9448 90.864C86.7314 90.4587 86.6248 89.9947 86.6248 89.472V85.984ZM89.9208 86.784V86.032C89.9208 85.648 89.8461 85.36 89.6968 85.168C89.5474 84.9653 89.3448 84.864 89.0888 84.864C88.8328 84.864 88.6301 84.9653 88.4808 85.168C88.3314 85.36 88.2568 85.648 88.2568 86.032V86.784H89.9208ZM100.387 83.456V92H98.7549V87.344L96.8989 92H95.4109V83.456H97.0429V88.144L98.8989 83.456H100.387ZM105.138 86.032C105.138 85.648 105.063 85.36 104.914 85.168C104.775 84.9653 104.589 84.864 104.354 84.864C104.109 84.864 103.911 84.9653 103.762 85.168C103.613 85.36 103.538 85.648 103.538 86.032V89.424C103.538 89.808 103.613 90.1013 103.762 90.304C103.911 90.496 104.109 90.592 104.354 90.592C104.599 90.592 104.797 90.496 104.946 90.304C105.095 90.1013 105.17 89.808 105.17 89.424V89.168H106.802V89.472C106.802 89.9947 106.695 90.4587 106.482 90.864C106.269 91.2693 105.975 91.584 105.602 91.808C105.229 92.0213 104.813 92.128 104.354 92.128C103.895 92.128 103.479 92.0213 103.106 91.808C102.733 91.584 102.439 91.2693 102.226 90.864C102.013 90.4587 101.906 89.9947 101.906 89.472V85.984C101.906 85.4613 102.013 84.9973 102.226 84.592C102.439 84.1867 102.733 83.8773 103.106 83.664C103.479 83.44 103.895 83.328 104.354 83.328C104.813 83.328 105.223 83.44 105.586 83.664C105.959 83.8773 106.247 84.1867 106.45 84.592C106.663 84.9973 106.77 85.4613 106.77 85.984V86.208H105.138V86.032ZM110.017 88.352H109.777V92H108.145V83.456H109.777V86.816H110.049L111.233 83.456H113.009L111.249 87.552L113.249 92H111.409L110.017 88.352ZM117.073 83.328C117.671 83.328 118.161 83.5573 118.545 84.016C118.929 84.4747 119.121 85.0773 119.121 85.824V89.632C119.121 90.3787 118.929 90.9813 118.545 91.44C118.161 91.8987 117.665 92.128 117.057 92.128C116.556 92.128 116.129 91.952 115.777 91.6V94.72H114.145V83.456H115.313L115.537 84.016H115.601C115.985 83.5573 116.476 83.328 117.073 83.328ZM117.489 85.984C117.489 85.6107 117.42 85.3333 117.281 85.152C117.143 84.96 116.951 84.864 116.705 84.864C116.449 84.864 116.236 84.96 116.065 85.152C115.905 85.3333 115.809 85.5787 115.777 85.888V89.52C115.809 89.84 115.905 90.1013 116.065 90.304C116.225 90.496 116.439 90.592 116.705 90.592C116.951 90.592 117.143 90.5013 117.281 90.32C117.42 90.128 117.489 89.8453 117.489 89.472V85.984Z" fill="white"/>
<path d="M43.1218 99.456H47.9378V108H46.3058V100.992H44.7538V108H43.1218V99.456ZM54.3247 108H52.6927V100.992H51.6207C51.4714 103.509 51.338 105.141 51.2207 105.888C51.1034 106.613 50.8634 107.147 50.5007 107.488C50.138 107.829 49.5994 108 48.8847 108V106.464C49.1514 106.464 49.3487 106.4 49.4767 106.272C49.6047 106.144 49.6954 105.925 49.7487 105.616C49.834 105.168 49.9247 104.299 50.0207 103.008C50.1274 101.717 50.186 100.533 50.1967 99.456H54.3247V108ZM58.1713 99.328C58.6193 99.328 59.0193 99.44 59.3713 99.664C59.734 99.8773 60.0166 100.187 60.2193 100.592C60.4326 100.987 60.5393 101.451 60.5393 101.984V108H59.3713L59.1473 107.392H59.0833C58.7206 107.883 58.2406 108.128 57.6433 108.128C57.0673 108.128 56.5873 107.904 56.2033 107.456C55.83 106.997 55.6433 106.4 55.6433 105.664V105.472C55.6433 104.693 55.878 104.064 56.3473 103.584C56.8166 103.093 57.414 102.848 58.1393 102.848H58.9073V102.032C58.9073 101.648 58.838 101.36 58.6993 101.168C58.5713 100.965 58.3953 100.864 58.1713 100.864C57.9473 100.864 57.766 100.965 57.6273 101.168C57.4993 101.36 57.4353 101.648 57.4353 102.032V102.208H55.8033V101.984C55.8033 101.451 55.9046 100.987 56.1073 100.592C56.3206 100.187 56.6086 99.8773 56.9713 99.664C57.334 99.44 57.734 99.328 58.1713 99.328ZM58.0273 106.592C58.262 106.592 58.4593 106.496 58.6193 106.304C58.7793 106.101 58.8753 105.84 58.9073 105.52V104.384H58.1393C57.8726 104.384 57.6593 104.48 57.4993 104.672C57.35 104.853 57.2753 105.12 57.2753 105.472V105.52C57.2753 105.861 57.3393 106.128 57.4673 106.32C57.606 106.501 57.7926 106.592 58.0273 106.592ZM68.4132 99.456V108H66.7812V103.344L65.4852 106.736H64.9092L63.6132 103.344V108H61.9812V99.456H63.5332L65.1972 103.92L66.8612 99.456H68.4132ZM69.9294 101.984C69.9294 101.195 70.1588 100.555 70.6174 100.064C71.0868 99.5733 71.6788 99.328 72.3934 99.328C73.1081 99.328 73.6948 99.5733 74.1534 100.064C74.6228 100.555 74.8574 101.195 74.8574 101.984V104.32H71.5614V105.424C71.5614 105.808 71.6361 106.101 71.7854 106.304C71.9348 106.496 72.1321 106.592 72.3774 106.592C72.6228 106.592 72.8201 106.496 72.9694 106.304C73.1188 106.101 73.1934 105.808 73.1934 105.424V105.168H74.8254V105.472C74.8254 105.995 74.7188 106.459 74.5054 106.864C74.2921 107.269 73.9988 107.584 73.6254 107.808C73.2521 108.021 72.8361 108.128 72.3774 108.128C71.9188 108.128 71.5028 108.021 71.1294 107.808C70.7561 107.584 70.4628 107.269 70.2494 106.864C70.0361 106.459 69.9294 105.995 69.9294 105.472V101.984ZM73.2254 102.784V102.032C73.2254 101.648 73.1508 101.36 73.0014 101.168C72.8521 100.965 72.6494 100.864 72.3934 100.864C72.1374 100.864 71.9348 100.965 71.7854 101.168C71.6361 101.36 71.5614 101.648 71.5614 102.032V102.784H73.2254ZM76.3093 99.456H77.9413V102.784H79.5413V99.456H81.1733V108H79.5413V104.32H77.9413V108H76.3093V99.456ZM87.8791 99.456V108H86.2471V103.344L84.3911 108H82.9031V99.456H84.5351V104.144L86.3911 99.456H87.8791Z" fill="white"/>
<defs>
<linearGradient id="paint0_linear" x1="65.5" y1="0" x2="65.5" y2="131" gradientUnits="userSpaceOnUse">
<stop stop-color="#FC8C34"/>
<stop offset="1" stop-color="#F2622D"/>
</linearGradient>
</defs>
</svg>
