<svg width="25" height="25" fill="none" xmlns="http://www.w3.org/2000/svg"><path d="M12.429 2.413c3.204 0 3.584.012 4.85.07 3.252.148 4.771 1.691 4.919 4.919.058 1.265.069 1.645.069 4.849 0 3.205-.012 3.584-.069 4.849-.149 3.225-1.664 4.771-4.919 4.919-1.266.058-1.644.07-4.85.07-3.204 0-3.584-.012-4.849-.07-3.26-.149-4.771-1.699-4.919-4.92-.058-1.265-.07-1.644-.07-4.849 0-3.204.013-3.583.07-4.849C2.81 4.174 4.325 2.63 7.58 2.482c1.266-.057 1.645-.069 4.849-.069zm0-2.163C9.17.25 8.762.264 7.482.322 3.124.522.702 2.94.502 7.302.443 8.583.429 8.991.429 12.25c0 3.259.014 3.668.072 4.948.2 4.358 2.618 6.78 6.98 6.98 1.281.058 1.689.072 4.948.072 3.259 0 3.668-.014 4.948-.072 4.354-.2 6.782-2.618 6.979-6.98.059-1.28.073-1.689.073-4.948 0-3.259-.014-3.667-.072-4.947-.196-4.354-2.617-6.78-6.979-6.98C16.097.264 15.688.25 12.429.25zm0 5.838a6.162 6.162 0 100 12.324 6.162 6.162 0 000-12.324zm0 10.162a4 4 0 110-8 4 4 0 010 8zm6.406-11.845a1.44 1.44 0 100 2.881 1.44 1.44 0 000-2.881z" fill="#fff"/></svg>