<svg width="33" height="18" fill="none" xmlns="http://www.w3.org/2000/svg"><path d="M28.155 11.164c1.056 1.001 2.171 1.943 3.118 3.044.419.49.815.995 1.118 1.563.43.808.04 1.697-.706 1.745l-4.638-.002c-1.196.096-2.15-.371-2.953-1.165-.642-.635-1.237-1.31-1.854-1.967a4.36 4.36 0 00-.835-.72c-.633-.399-1.183-.277-1.545.364-.368.652-.452 1.374-.488 2.1-.05 1.06-.38 1.34-1.477 1.388-2.344.107-4.57-.237-6.637-1.385-1.822-1.012-3.235-2.441-4.466-4.059C4.398 8.921 2.564 5.46.915 1.902c-.37-.801-.1-1.231.812-1.247C3.24.627 4.753.63 6.267.653c.616.009 1.023.351 1.26.915.819 1.954 1.82 3.813 3.078 5.536.335.458.676.917 1.162 1.24.538.357.948.239 1.2-.343.161-.368.232-.766.268-1.16.12-1.36.136-2.716-.075-4.07-.129-.845-.62-1.392-1.488-1.552-.443-.081-.377-.241-.163-.487.373-.423.724-.687 1.423-.687h5.242c.825.158 1.008.518 1.121 1.324L19.3 7.02c-.01.312.16 1.238.74 1.444.463.147.768-.212 1.046-.498 1.255-1.292 2.151-2.82 2.951-4.402.355-.696.66-1.419.957-2.14.219-.536.563-.8 1.185-.788l5.045.004c.15 0 .3.002.445.027.85.14 1.084.495.821 1.3-.414 1.265-1.219 2.318-2.006 3.377-.841 1.13-1.74 2.22-2.575 3.357-.767 1.039-.706 1.562.246 2.463z" fill="#fff"/></svg>